<svg xmlns="http://www.w3.org/2000/svg" xmlns:xlink="http://www.w3.org/1999/xlink" width="500" zoomAndPan="magnify" viewBox="0 0 375 138.749998" height="185" preserveAspectRatio="xMidYMid meet" version="1.0"><defs><g/><clipPath id="ad1e10b2b5"><path d="M 84.707031 80.007812 L 117.589844 80.007812 L 117.589844 91.238281 L 84.707031 91.238281 Z M 84.707031 80.007812 " clip-rule="nonzero"/></clipPath><clipPath id="65ee60848e"><path d="M 3.574219 64.429688 L 100.898438 64.429688 L 100.898438 89.136719 L 3.574219 89.136719 Z M 3.574219 64.429688 " clip-rule="nonzero"/></clipPath><clipPath id="24e9dcf14e"><path d="M 341 82 L 347 82 L 347 95 L 341 95 Z M 341 82 " clip-rule="nonzero"/></clipPath><clipPath id="7e2018b3e4"><path d="M 371.414062 88.40625 L 300.421875 118.503906 L 271.492188 50.269531 L 342.484375 20.167969 Z M 371.414062 88.40625 " clip-rule="nonzero"/></clipPath><clipPath id="7eb9b2e014"><path d="M 371.414062 88.40625 L 300.421875 118.503906 L 271.492188 50.269531 L 342.484375 20.167969 Z M 371.414062 88.40625 " clip-rule="nonzero"/></clipPath><clipPath id="7b76513539"><path d="M 331 90 L 338 90 L 338 103 L 331 103 Z M 331 90 " clip-rule="nonzero"/></clipPath><clipPath id="a98691d2b6"><path d="M 371.414062 88.40625 L 300.421875 118.503906 L 271.492188 50.269531 L 342.484375 20.167969 Z M 371.414062 88.40625 " clip-rule="nonzero"/></clipPath><clipPath id="cfa2414af1"><path d="M 371.414062 88.40625 L 300.421875 118.503906 L 271.492188 50.269531 L 342.484375 20.167969 Z M 371.414062 88.40625 " clip-rule="nonzero"/></clipPath><clipPath id="2dca9f11e6"><path d="M 319 97 L 326 97 L 326 109 L 319 109 Z M 319 97 " clip-rule="nonzero"/></clipPath><clipPath id="f338fc3c5a"><path d="M 371.414062 88.40625 L 300.421875 118.503906 L 271.492188 50.269531 L 342.484375 20.167969 Z M 371.414062 88.40625 " clip-rule="nonzero"/></clipPath><clipPath id="3a5ca6b30a"><path d="M 371.414062 88.40625 L 300.421875 118.503906 L 271.492188 50.269531 L 342.484375 20.167969 Z M 371.414062 88.40625 " clip-rule="nonzero"/></clipPath><clipPath id="fb3a4be2b0"><path d="M 293 97 L 306 97 L 306 103 L 293 103 Z M 293 97 " clip-rule="nonzero"/></clipPath><clipPath id="3a13058295"><path d="M 371.414062 88.40625 L 300.421875 118.503906 L 271.492188 50.269531 L 342.484375 20.167969 Z M 371.414062 88.40625 " clip-rule="nonzero"/></clipPath><clipPath id="a0a8d9ef11"><path d="M 371.414062 88.40625 L 300.421875 118.503906 L 271.492188 50.269531 L 342.484375 20.167969 Z M 371.414062 88.40625 " clip-rule="nonzero"/></clipPath><clipPath id="468d601d1f"><path d="M 309 93 L 322 93 L 322 100 L 309 100 Z M 309 93 " clip-rule="nonzero"/></clipPath><clipPath id="f6a93d0289"><path d="M 371.414062 88.40625 L 300.421875 118.503906 L 271.492188 50.269531 L 342.484375 20.167969 Z M 371.414062 88.40625 " clip-rule="nonzero"/></clipPath><clipPath id="187201167c"><path d="M 371.414062 88.40625 L 300.421875 118.503906 L 271.492188 50.269531 L 342.484375 20.167969 Z M 371.414062 88.40625 " clip-rule="nonzero"/></clipPath><clipPath id="70ba8b8568"><path d="M 322 86 L 335 86 L 335 93 L 322 93 Z M 322 86 " clip-rule="nonzero"/></clipPath><clipPath id="c8daef8fe0"><path d="M 371.414062 88.40625 L 300.421875 118.503906 L 271.492188 50.269531 L 342.484375 20.167969 Z M 371.414062 88.40625 " clip-rule="nonzero"/></clipPath><clipPath id="eba1c348c0"><path d="M 371.414062 88.40625 L 300.421875 118.503906 L 271.492188 50.269531 L 342.484375 20.167969 Z M 371.414062 88.40625 " clip-rule="nonzero"/></clipPath><clipPath id="7627902273"><path d="M 333 76 L 344 76 L 344 84 L 333 84 Z M 333 76 " clip-rule="nonzero"/></clipPath><clipPath id="acb6f59e45"><path d="M 371.414062 88.40625 L 300.421875 118.503906 L 271.492188 50.269531 L 342.484375 20.167969 Z M 371.414062 88.40625 " clip-rule="nonzero"/></clipPath><clipPath id="9b2b9c7574"><path d="M 371.414062 88.40625 L 300.421875 118.503906 L 271.492188 50.269531 L 342.484375 20.167969 Z M 371.414062 88.40625 " clip-rule="nonzero"/></clipPath><clipPath id="b81a789210"><path d="M 337 65 L 347 65 L 347 71 L 337 71 Z M 337 65 " clip-rule="nonzero"/></clipPath><clipPath id="f11ae2f854"><path d="M 371.414062 88.40625 L 300.421875 118.503906 L 271.492188 50.269531 L 342.484375 20.167969 Z M 371.414062 88.40625 " clip-rule="nonzero"/></clipPath><clipPath id="d75424008d"><path d="M 371.414062 88.40625 L 300.421875 118.503906 L 271.492188 50.269531 L 342.484375 20.167969 Z M 371.414062 88.40625 " clip-rule="nonzero"/></clipPath><clipPath id="f657e30898"><path d="M 334 52 L 345 52 L 345 59 L 334 59 Z M 334 52 " clip-rule="nonzero"/></clipPath><clipPath id="ab52122d86"><path d="M 371.414062 88.40625 L 300.421875 118.503906 L 271.492188 50.269531 L 342.484375 20.167969 Z M 371.414062 88.40625 " clip-rule="nonzero"/></clipPath><clipPath id="4de0fe4ac4"><path d="M 371.414062 88.40625 L 300.421875 118.503906 L 271.492188 50.269531 L 342.484375 20.167969 Z M 371.414062 88.40625 " clip-rule="nonzero"/></clipPath><clipPath id="82da865b51"><path d="M 333 41 L 343 41 L 343 48 L 333 48 Z M 333 41 " clip-rule="nonzero"/></clipPath><clipPath id="01ea241f7e"><path d="M 371.414062 88.40625 L 300.421875 118.503906 L 271.492188 50.269531 L 342.484375 20.167969 Z M 371.414062 88.40625 " clip-rule="nonzero"/></clipPath><clipPath id="850845e68e"><path d="M 371.414062 88.40625 L 300.421875 118.503906 L 271.492188 50.269531 L 342.484375 20.167969 Z M 371.414062 88.40625 " clip-rule="nonzero"/></clipPath><clipPath id="7374a20a1e"><path d="M 329 26 L 338 26 L 338 36 L 329 36 Z M 329 26 " clip-rule="nonzero"/></clipPath><clipPath id="f54355acf2"><path d="M 371.414062 88.40625 L 300.421875 118.503906 L 271.492188 50.269531 L 342.484375 20.167969 Z M 371.414062 88.40625 " clip-rule="nonzero"/></clipPath><clipPath id="2b7d018763"><path d="M 371.414062 88.40625 L 300.421875 118.503906 L 271.492188 50.269531 L 342.484375 20.167969 Z M 371.414062 88.40625 " clip-rule="nonzero"/></clipPath><clipPath id="6b58f90cfd"><path d="M 342 37 L 349 37 L 349 47 L 342 47 Z M 342 37 " clip-rule="nonzero"/></clipPath><clipPath id="557966e0fb"><path d="M 371.414062 88.40625 L 300.421875 118.503906 L 271.492188 50.269531 L 342.484375 20.167969 Z M 371.414062 88.40625 " clip-rule="nonzero"/></clipPath><clipPath id="dd9aa960ce"><path d="M 371.414062 88.40625 L 300.421875 118.503906 L 271.492188 50.269531 L 342.484375 20.167969 Z M 371.414062 88.40625 " clip-rule="nonzero"/></clipPath><clipPath id="d77ae8de9d"><path d="M 344 48 L 353 48 L 353 57 L 344 57 Z M 344 48 " clip-rule="nonzero"/></clipPath><clipPath id="25b46be0bd"><path d="M 371.414062 88.40625 L 300.421875 118.503906 L 271.492188 50.269531 L 342.484375 20.167969 Z M 371.414062 88.40625 " clip-rule="nonzero"/></clipPath><clipPath id="3c27407417"><path d="M 371.414062 88.40625 L 300.421875 118.503906 L 271.492188 50.269531 L 342.484375 20.167969 Z M 371.414062 88.40625 " clip-rule="nonzero"/></clipPath><clipPath id="3dfbeeffc7"><path d="M 347 60 L 354 60 L 354 70 L 347 70 Z M 347 60 " clip-rule="nonzero"/></clipPath><clipPath id="07282110fb"><path d="M 371.414062 88.40625 L 300.421875 118.503906 L 271.492188 50.269531 L 342.484375 20.167969 Z M 371.414062 88.40625 " clip-rule="nonzero"/></clipPath><clipPath id="e063eb4639"><path d="M 371.414062 88.40625 L 300.421875 118.503906 L 271.492188 50.269531 L 342.484375 20.167969 Z M 371.414062 88.40625 " clip-rule="nonzero"/></clipPath><clipPath id="9b0ef1027a"><path d="M 305 74 L 367 74 L 367 103 L 305 103 Z M 305 74 " clip-rule="nonzero"/></clipPath><clipPath id="b0922f991b"><path d="M 371.414062 88.40625 L 300.421875 118.503906 L 271.492188 50.269531 L 342.484375 20.167969 Z M 371.414062 88.40625 " clip-rule="nonzero"/></clipPath><clipPath id="eca567782b"><path d="M 371.414062 88.40625 L 300.421875 118.503906 L 271.492188 50.269531 L 342.484375 20.167969 Z M 371.414062 88.40625 " clip-rule="nonzero"/></clipPath><clipPath id="1b23ea1883"><path d="M 337 34 L 351 34 L 351 76 L 337 76 Z M 337 34 " clip-rule="nonzero"/></clipPath><clipPath id="ddda4b7324"><path d="M 371.414062 88.40625 L 300.421875 118.503906 L 271.492188 50.269531 L 342.484375 20.167969 Z M 371.414062 88.40625 " clip-rule="nonzero"/></clipPath><clipPath id="2ecebad94d"><path d="M 371.414062 88.40625 L 300.421875 118.503906 L 271.492188 50.269531 L 342.484375 20.167969 Z M 371.414062 88.40625 " clip-rule="nonzero"/></clipPath><clipPath id="57703624e1"><path d="M 292 96 L 307 96 L 307 104 L 292 104 Z M 292 96 " clip-rule="nonzero"/></clipPath><clipPath id="ae52a6821d"><path d="M 371.414062 88.40625 L 300.421875 118.503906 L 271.492188 50.269531 L 342.484375 20.167969 Z M 371.414062 88.40625 " clip-rule="nonzero"/></clipPath><clipPath id="e76d30c45e"><path d="M 371.414062 88.40625 L 300.421875 118.503906 L 271.492188 50.269531 L 342.484375 20.167969 Z M 371.414062 88.40625 " clip-rule="nonzero"/></clipPath><clipPath id="0375ef164d"><path d="M 319 96 L 327 96 L 327 110 L 319 110 Z M 319 96 " clip-rule="nonzero"/></clipPath><clipPath id="94172fd964"><path d="M 371.414062 88.40625 L 300.421875 118.503906 L 271.492188 50.269531 L 342.484375 20.167969 Z M 371.414062 88.40625 " clip-rule="nonzero"/></clipPath><clipPath id="aa21d881f1"><path d="M 371.414062 88.40625 L 300.421875 118.503906 L 271.492188 50.269531 L 342.484375 20.167969 Z M 371.414062 88.40625 " clip-rule="nonzero"/></clipPath><clipPath id="195b2c0175"><path d="M 331 89 L 338 89 L 338 103 L 331 103 Z M 331 89 " clip-rule="nonzero"/></clipPath><clipPath id="59f355c0d8"><path d="M 371.414062 88.40625 L 300.421875 118.503906 L 271.492188 50.269531 L 342.484375 20.167969 Z M 371.414062 88.40625 " clip-rule="nonzero"/></clipPath><clipPath id="1aa31a2227"><path d="M 371.414062 88.40625 L 300.421875 118.503906 L 271.492188 50.269531 L 342.484375 20.167969 Z M 371.414062 88.40625 " clip-rule="nonzero"/></clipPath><clipPath id="593768ad74"><path d="M 341 81 L 347 81 L 347 95 L 341 95 Z M 341 81 " clip-rule="nonzero"/></clipPath><clipPath id="3e19a4394b"><path d="M 371.414062 88.40625 L 300.421875 118.503906 L 271.492188 50.269531 L 342.484375 20.167969 Z M 371.414062 88.40625 " clip-rule="nonzero"/></clipPath><clipPath id="0dfa470c11"><path d="M 371.414062 88.40625 L 300.421875 118.503906 L 271.492188 50.269531 L 342.484375 20.167969 Z M 371.414062 88.40625 " clip-rule="nonzero"/></clipPath><clipPath id="ad570221e5"><path d="M 309 93 L 322 93 L 322 101 L 309 101 Z M 309 93 " clip-rule="nonzero"/></clipPath><clipPath id="6a0b11699f"><path d="M 371.414062 88.40625 L 300.421875 118.503906 L 271.492188 50.269531 L 342.484375 20.167969 Z M 371.414062 88.40625 " clip-rule="nonzero"/></clipPath><clipPath id="54ecf5b4b6"><path d="M 371.414062 88.40625 L 300.421875 118.503906 L 271.492188 50.269531 L 342.484375 20.167969 Z M 371.414062 88.40625 " clip-rule="nonzero"/></clipPath><clipPath id="fc314febe5"><path d="M 321 86 L 336 86 L 336 93 L 321 93 Z M 321 86 " clip-rule="nonzero"/></clipPath><clipPath id="09aa5579d4"><path d="M 371.414062 88.40625 L 300.421875 118.503906 L 271.492188 50.269531 L 342.484375 20.167969 Z M 371.414062 88.40625 " clip-rule="nonzero"/></clipPath><clipPath id="605bb81b8b"><path d="M 371.414062 88.40625 L 300.421875 118.503906 L 271.492188 50.269531 L 342.484375 20.167969 Z M 371.414062 88.40625 " clip-rule="nonzero"/></clipPath><clipPath id="901b675e97"><path d="M 332 76 L 345 76 L 345 84 L 332 84 Z M 332 76 " clip-rule="nonzero"/></clipPath><clipPath id="1a5a16e937"><path d="M 371.414062 88.40625 L 300.421875 118.503906 L 271.492188 50.269531 L 342.484375 20.167969 Z M 371.414062 88.40625 " clip-rule="nonzero"/></clipPath><clipPath id="6d0e88084c"><path d="M 371.414062 88.40625 L 300.421875 118.503906 L 271.492188 50.269531 L 342.484375 20.167969 Z M 371.414062 88.40625 " clip-rule="nonzero"/></clipPath><clipPath id="8968e3840c"><path d="M 328 25 L 339 25 L 339 37 L 328 37 Z M 328 25 " clip-rule="nonzero"/></clipPath><clipPath id="b0fbe4e306"><path d="M 371.414062 88.40625 L 300.421875 118.503906 L 271.492188 50.269531 L 342.484375 20.167969 Z M 371.414062 88.40625 " clip-rule="nonzero"/></clipPath><clipPath id="f9afd8637e"><path d="M 371.414062 88.40625 L 300.421875 118.503906 L 271.492188 50.269531 L 342.484375 20.167969 Z M 371.414062 88.40625 " clip-rule="nonzero"/></clipPath><clipPath id="f27c3ccef6"><path d="M 341 36 L 350 36 L 350 48 L 341 48 Z M 341 36 " clip-rule="nonzero"/></clipPath><clipPath id="a4da3ca9b4"><path d="M 371.414062 88.40625 L 300.421875 118.503906 L 271.492188 50.269531 L 342.484375 20.167969 Z M 371.414062 88.40625 " clip-rule="nonzero"/></clipPath><clipPath id="5738f2bf5d"><path d="M 371.414062 88.40625 L 300.421875 118.503906 L 271.492188 50.269531 L 342.484375 20.167969 Z M 371.414062 88.40625 " clip-rule="nonzero"/></clipPath><clipPath id="c598603cf6"><path d="M 332 41 L 344 41 L 344 49 L 332 49 Z M 332 41 " clip-rule="nonzero"/></clipPath><clipPath id="63a1382a3f"><path d="M 371.414062 88.40625 L 300.421875 118.503906 L 271.492188 50.269531 L 342.484375 20.167969 Z M 371.414062 88.40625 " clip-rule="nonzero"/></clipPath><clipPath id="69a8311982"><path d="M 371.414062 88.40625 L 300.421875 118.503906 L 271.492188 50.269531 L 342.484375 20.167969 Z M 371.414062 88.40625 " clip-rule="nonzero"/></clipPath><clipPath id="b2e8cee738"><path d="M 334 52 L 345 52 L 345 60 L 334 60 Z M 334 52 " clip-rule="nonzero"/></clipPath><clipPath id="0c51b15b3c"><path d="M 371.414062 88.40625 L 300.421875 118.503906 L 271.492188 50.269531 L 342.484375 20.167969 Z M 371.414062 88.40625 " clip-rule="nonzero"/></clipPath><clipPath id="723c35fd7b"><path d="M 371.414062 88.40625 L 300.421875 118.503906 L 271.492188 50.269531 L 342.484375 20.167969 Z M 371.414062 88.40625 " clip-rule="nonzero"/></clipPath><clipPath id="e8733eccf7"><path d="M 343 48 L 354 48 L 354 57 L 343 57 Z M 343 48 " clip-rule="nonzero"/></clipPath><clipPath id="2bb480ad2f"><path d="M 371.414062 88.40625 L 300.421875 118.503906 L 271.492188 50.269531 L 342.484375 20.167969 Z M 371.414062 88.40625 " clip-rule="nonzero"/></clipPath><clipPath id="39f05cd023"><path d="M 371.414062 88.40625 L 300.421875 118.503906 L 271.492188 50.269531 L 342.484375 20.167969 Z M 371.414062 88.40625 " clip-rule="nonzero"/></clipPath><clipPath id="28aab3c60b"><path d="M 346 59 L 354 59 L 354 71 L 346 71 Z M 346 59 " clip-rule="nonzero"/></clipPath><clipPath id="8e35faf773"><path d="M 371.414062 88.40625 L 300.421875 118.503906 L 271.492188 50.269531 L 342.484375 20.167969 Z M 371.414062 88.40625 " clip-rule="nonzero"/></clipPath><clipPath id="6783b40f09"><path d="M 371.414062 88.40625 L 300.421875 118.503906 L 271.492188 50.269531 L 342.484375 20.167969 Z M 371.414062 88.40625 " clip-rule="nonzero"/></clipPath><clipPath id="f19df7c075"><path d="M 336 65 L 348 65 L 348 72 L 336 72 Z M 336 65 " clip-rule="nonzero"/></clipPath><clipPath id="43deaeb557"><path d="M 371.414062 88.40625 L 300.421875 118.503906 L 271.492188 50.269531 L 342.484375 20.167969 Z M 371.414062 88.40625 " clip-rule="nonzero"/></clipPath><clipPath id="3c757979d5"><path d="M 371.414062 88.40625 L 300.421875 118.503906 L 271.492188 50.269531 L 342.484375 20.167969 Z M 371.414062 88.40625 " clip-rule="nonzero"/></clipPath></defs><g clip-path="url(#ad1e10b2b5)"><path fill="#ffffff" d="M 103.363281 87.46875 C 103.832031 87.382812 104.179688 87.328125 104.523438 87.253906 C 106.113281 86.90625 107.699219 86.554688 109.289062 86.226562 C 109.449219 86.195312 109.660156 86.253906 109.800781 86.347656 C 111.289062 87.328125 112.8125 88.242188 114.570312 88.664062 C 114.859375 88.730469 115.160156 88.808594 115.453125 88.808594 C 116.117188 88.808594 116.507812 88.296875 116.347656 87.644531 C 116.171875 86.90625 115.691406 86.390625 115.042969 86.03125 C 114.582031 85.773438 114.074219 85.597656 113.542969 85.359375 C 114.933594 85.144531 116.207031 85.75 117.648438 85.878906 C 117.53125 85.671875 117.488281 85.546875 117.410156 85.457031 C 116.53125 84.382812 115.429688 83.78125 114.015625 83.738281 C 112.507812 83.695312 111.003906 83.914062 109.570312 84.382812 C 109.40625 84.4375 109.226562 84.476562 108.960938 84.550781 C 109.082031 84.402344 109.144531 84.324219 109.210938 84.257812 C 109.476562 83.988281 109.777344 83.738281 110.019531 83.445312 C 110.210938 83.230469 110.363281 82.988281 110.472656 82.71875 C 110.699219 82.117188 110.558594 81.550781 110.167969 81.261719 C 109.734375 80.945312 109.222656 81.007812 108.660156 81.421875 C 108.179688 81.78125 107.691406 82.140625 107.199219 82.476562 C 106.277344 83.085938 105.570312 83.964844 105.160156 84.988281 C 105.09375 85.160156 104.898438 85.359375 104.730469 85.402344 C 103.332031 85.726562 101.960938 86.019531 100.484375 85.882812 C 99.4375 85.785156 98.40625 85.671875 97.382812 85.4375 C 96.542969 85.25 95.773438 84.921875 95.089844 84.390625 C 94.878906 84.21875 94.632812 84.097656 94.371094 84.023438 C 93.867188 83.902344 93.5 84.328125 93.6875 84.8125 C 93.804688 85.074219 93.957031 85.316406 94.152344 85.523438 C 94.753906 86.207031 95.53125 86.640625 96.402344 86.890625 C 97.085938 87.085938 97.78125 87.230469 98.460938 87.425781 C 98.65625 87.480469 98.832031 87.617188 99 87.75 C 99.613281 88.261719 100.179688 88.859375 100.847656 89.296875 C 101.839844 89.945312 102.898438 90.492188 103.949219 91.046875 C 104.253906 91.207031 104.582031 91.296875 104.925781 91.308594 C 105.753906 91.339844 106.203125 90.683594 105.929688 89.902344 C 105.679688 89.195312 105.132812 88.742188 104.550781 88.316406 C 104.191406 88.058594 103.828125 87.804688 103.363281 87.46875 Z M 84.652344 81.085938 C 84.648438 80.445312 85.105469 80.011719 85.789062 80.011719 C 86.347656 80.011719 86.804688 80.414062 86.769531 80.941406 C 86.71875 81.640625 86.375 82.132812 85.648438 82.148438 C 85.070312 82.152344 84.660156 81.714844 84.652344 81.085938 Z M 90.621094 82.132812 C 91.105469 82.140625 91.4375 82.597656 91.433594 83.226562 C 91.425781 83.671875 91.117188 84.007812 90.707031 84.007812 C 90.238281 84.007812 89.78125 83.523438 89.78125 83.03125 C 89.78125 82.476562 90.109375 82.128906 90.621094 82.132812 Z M 90.621094 82.132812 " fill-opacity="1" fill-rule="nonzero"/></g><g clip-path="url(#65ee60848e)"><path fill="#ffffff" d="M 33.136719 83.417969 C 34.375 82.773438 35.527344 81.914062 36.507812 80.894531 C 37.757812 79.585938 38.710938 78.011719 39.21875 76.28125 C 39.511719 75.234375 39.492188 73.929688 39.171875 72.628906 C 38.742188 70.875 37.789062 69.136719 36.558594 68.074219 C 35.625 67.265625 34.53125 66.816406 33.378906 66.898438 C 32.4375 66.964844 31.421875 67.371094 30.417969 68.324219 C 27.078125 71.503906 27.128906 76.414062 29.140625 80.707031 C 29.390625 81.238281 29.671875 81.765625 29.976562 82.273438 C 26.191406 83.585938 22.472656 82.972656 19.039062 81.3125 C 13.148438 78.460938 8.078125 72.617188 4.859375 67.578125 C 4.726562 67.359375 4.4375 67.289062 4.21875 67.421875 C 3.996094 67.554688 3.925781 67.84375 4.0625 68.0625 C 7.179688 73.441406 12.214844 79.722656 18.214844 82.925781 C 22.25 85.078125 26.710938 85.839844 31.320312 84.203125 C 33.28125 86.65625 35.835938 88.484375 38.402344 88.953125 C 40.90625 89.421875 43.101562 89.34375 45.078125 88.910156 C 47.359375 88.40625 49.347656 87.40625 51.140625 86.058594 C 55.796875 82.566406 59.117188 76.757812 62.816406 72.339844 C 63.824219 71.136719 64.863281 70.046875 65.972656 69.148438 C 67.640625 67.800781 69.476562 66.890625 71.71875 66.84375 C 74.792969 66.765625 77.082031 68.925781 78.394531 71.753906 C 77.226562 71.722656 76.050781 71.921875 74.855469 72.421875 C 74.105469 72.746094 73.394531 73.179688 72.769531 73.742188 C 70.445312 75.832031 69.152344 79.347656 69.246094 82.125 C 69.308594 84.082031 70.054688 85.671875 71.511719 86.433594 C 72.332031 86.859375 73.394531 87.0625 74.761719 86.824219 C 80.25 85.910156 82.253906 80.25 81.441406 74.816406 L 81.40625 74.589844 C 84 75.335938 86.570312 76.714844 89.085938 77.179688 C 90.375 77.414062 91.605469 77.296875 92.816406 76.976562 C 95.304688 76.316406 97.664062 74.757812 100.183594 74.273438 C 100.539062 74.210938 100.78125 73.871094 100.71875 73.515625 C 100.660156 73.160156 100.320312 72.917969 99.964844 72.980469 C 97.40625 73.355469 94.960938 74.8125 92.425781 75.359375 C 91.457031 75.566406 90.472656 75.621094 89.460938 75.378906 C 86.605469 74.714844 83.730469 72.878906 80.785156 72.109375 C 79.34375 67.863281 76.097656 64.445312 71.695312 64.421875 C 68.863281 64.421875 66.472656 65.453125 64.363281 67.148438 C 63.117188 68.152344 61.972656 69.394531 60.882812 70.769531 C 57.390625 75.1875 54.488281 81.09375 50.050781 84.65625 C 48.496094 85.902344 46.753906 86.871094 44.726562 87.328125 C 42.953125 87.726562 40.972656 87.722656 38.734375 87.265625 C 36.6875 86.835938 34.707031 85.371094 33.136719 83.417969 Z M 79.242188 74.148438 C 78.117188 74.03125 76.988281 74.148438 75.859375 74.679688 C 75.34375 74.917969 74.878906 75.261719 74.433594 75.640625 C 72.53125 77.269531 71.207031 79.90625 71.113281 82.132812 C 71.0625 83.394531 71.332031 84.539062 72.253906 85.058594 C 72.804688 85.363281 73.546875 85.417969 74.472656 85.242188 C 78.949219 84.363281 80.253906 79.578125 79.457031 75.144531 C 79.398438 74.808594 79.328125 74.476562 79.242188 74.148438 Z M 31.808594 81.484375 C 32.886719 80.910156 33.882812 80.132812 34.722656 79.21875 C 35.675781 78.179688 36.414062 76.949219 36.789062 75.589844 C 37.195312 74.175781 36.628906 72.082031 35.605469 70.65625 C 35.125 69.988281 34.554688 69.441406 33.867188 69.3125 C 33.285156 69.203125 32.664062 69.429688 32 70.03125 C 29.28125 72.492188 29.476562 76.417969 30.988281 79.871094 C 31.226562 80.417969 31.503906 80.960938 31.808594 81.484375 Z M 31.808594 81.484375 " fill-opacity="1" fill-rule="evenodd"/></g><g clip-path="url(#24e9dcf14e)"><g clip-path="url(#7e2018b3e4)"><g clip-path="url(#7eb9b2e014)"><path fill="#ffffff" d="M 345.238281 82.191406 C 345.882812 83.46875 346.269531 84.453125 346.390625 85.136719 C 346.507812 85.1875 346.5625 86.34375 346.5625 88.605469 C 346.1875 91.046875 345.945312 92.21875 345.847656 92.121094 C 345.5625 92.878906 345.101562 93.480469 344.46875 93.9375 C 343.960938 94.269531 343.65625 94.402344 343.558594 94.339844 C 343.082031 94.308594 342.691406 94.152344 342.382812 93.871094 C 342.144531 93.707031 341.921875 93.277344 341.707031 92.589844 C 341.628906 91.761719 341.609375 91.238281 341.652344 91.015625 C 341.652344 90.523438 341.898438 89.351562 342.386719 87.488281 C 343.289062 85.296875 343.953125 83.84375 344.382812 83.140625 C 344.441406 82.988281 344.675781 82.703125 345.101562 82.289062 Z M 345.238281 82.191406 " fill-opacity="1" fill-rule="nonzero"/></g></g></g><g clip-path="url(#7b76513539)"><g clip-path="url(#a98691d2b6)"><g clip-path="url(#cfa2414af1)"><path fill="#ffffff" d="M 335.816406 90.179688 C 336.054688 90.660156 336.253906 91.265625 336.421875 91.984375 L 336.507812 93.289062 L 336.96875 95.164062 C 337.097656 95.785156 337.019531 96.8125 336.730469 98.238281 C 336.214844 99.753906 335.839844 100.589844 335.605469 100.757812 C 334.621094 101.605469 334.039062 102.011719 333.855469 101.984375 C 332.488281 102.144531 331.6875 101.40625 331.453125 99.769531 C 331.367188 99.527344 331.410156 99.042969 331.585938 98.308594 L 333.179688 94.472656 C 333.144531 94.402344 333.886719 93.324219 335.40625 91.230469 C 335.476562 91.019531 335.566406 90.835938 335.6875 90.675781 Z M 335.816406 90.179688 " fill-opacity="1" fill-rule="nonzero"/></g></g></g><g clip-path="url(#2dca9f11e6)"><g clip-path="url(#f338fc3c5a)"><g clip-path="url(#3a5ca6b30a)"><path fill="#ffffff" d="M 325.210938 97.613281 C 325.644531 99.03125 325.867188 99.9375 325.871094 100.332031 L 325.871094 102.121094 C 325.839844 103.027344 325.519531 104.289062 324.921875 105.910156 C 324.296875 106.929688 323.515625 107.761719 322.582031 108.394531 C 322.207031 108.445312 321.792969 108.4375 321.328125 108.371094 C 321.332031 108.414062 321.121094 108.289062 320.710938 107.980469 C 320.269531 107.730469 320.035156 107.171875 319.996094 106.3125 C 319.972656 106.136719 320.078125 105.421875 320.308594 104.183594 C 320.894531 102.695312 321.3125 101.828125 321.5625 101.566406 C 322.425781 100.253906 322.980469 99.523438 323.230469 99.382812 L 324.664062 98.019531 C 324.679688 97.996094 324.8125 97.941406 325.054688 97.859375 Z M 325.210938 97.613281 " fill-opacity="1" fill-rule="nonzero"/></g></g></g><g clip-path="url(#fb3a4be2b0)"><g clip-path="url(#3a13058295)"><g clip-path="url(#a0a8d9ef11)"><path fill="#ffffff" d="M 305.160156 101.359375 C 304.917969 101.585938 304.621094 101.742188 304.261719 101.824219 C 303.929688 101.910156 303.089844 101.996094 301.75 102.078125 L 299.679688 102.414062 C 298.214844 102.367188 296.765625 101.929688 295.324219 101.09375 C 294.640625 100.710938 294.132812 100.367188 293.8125 100.070312 C 293.402344 99.640625 293.222656 99.179688 293.269531 98.683594 C 293.582031 97.976562 293.992188 97.527344 294.503906 97.324219 C 294.664062 97.234375 295.398438 97.15625 296.699219 97.089844 C 296.773438 97.023438 297.746094 97.253906 299.613281 97.769531 L 301.105469 98.492188 C 302.921875 99.761719 304.128906 100.546875 304.71875 100.851562 L 305.695312 101.648438 Z M 305.160156 101.359375 " fill-opacity="1" fill-rule="nonzero"/></g></g></g><g clip-path="url(#468d601d1f)"><g clip-path="url(#f6a93d0289)"><g clip-path="url(#187201167c)"><path fill="#ffffff" d="M 321.214844 99.25 C 319.902344 99.699219 318.199219 99.796875 316.09375 99.542969 C 316.132812 99.660156 314.9375 99.199219 312.515625 98.164062 C 312.441406 98.140625 312.152344 97.945312 311.652344 97.558594 L 310.476562 96.285156 C 310.125 95.796875 309.957031 95.300781 309.972656 94.796875 C 310.160156 94.121094 310.316406 93.738281 310.441406 93.648438 C 310.964844 93.109375 312.039062 93.066406 313.679688 93.523438 L 315.222656 94.167969 C 315.222656 94.121094 316.113281 94.753906 317.882812 96.0625 L 319.996094 97.867188 C 320.1875 97.988281 320.667969 98.550781 321.441406 99.554688 Z M 321.214844 99.25 " fill-opacity="1" fill-rule="nonzero"/></g></g></g><g clip-path="url(#70ba8b8568)"><g clip-path="url(#c8daef8fe0)"><g clip-path="url(#eba1c348c0)"><path fill="#ffffff" d="M 334.675781 91.214844 C 333.59375 91.722656 332.722656 92.019531 332.0625 92.105469 C 331.769531 92.226562 330.820312 92.234375 329.210938 92.125 C 328.144531 92.105469 326.976562 91.875 325.707031 91.425781 C 325.066406 91.152344 324.359375 90.714844 323.589844 90.121094 C 323.039062 89.503906 322.734375 89.042969 322.671875 88.734375 C 322.613281 88.394531 322.710938 87.96875 322.964844 87.453125 C 323.261719 87.097656 323.71875 86.835938 324.332031 86.667969 C 325.316406 86.523438 325.816406 86.472656 325.855469 86.527344 L 327.652344 86.746094 C 327.585938 86.667969 328.277344 86.957031 329.738281 87.609375 C 330.464844 87.960938 330.914062 88.214844 331.078125 88.375 C 332.832031 89.582031 333.84375 90.339844 334.113281 90.652344 Z M 334.675781 91.214844 " fill-opacity="1" fill-rule="nonzero"/></g></g></g><g clip-path="url(#7627902273)"><g clip-path="url(#acb6f59e45)"><g clip-path="url(#9b2b9c7574)"><path fill="#ffffff" d="M 343.902344 82.851562 C 343.457031 83.171875 342.785156 83.351562 341.886719 83.40625 C 341.730469 83.464844 340.882812 83.363281 339.355469 83.09375 C 337.929688 82.679688 336.941406 82.3125 336.382812 81.988281 C 335.210938 81.285156 334.566406 80.878906 334.449219 80.765625 C 333.976562 80.34375 333.648438 79.976562 333.46875 79.671875 C 333.226562 79.347656 333.09375 78.964844 333.066406 78.511719 C 333.238281 77.867188 333.449219 77.492188 333.695312 77.390625 C 334.03125 77.144531 334.578125 76.980469 335.332031 76.902344 C 335.480469 76.882812 335.835938 76.929688 336.394531 77.050781 L 337.765625 77.515625 L 340.757812 79.34375 C 341.847656 80.09375 342.71875 81.003906 343.371094 82.070312 Z M 343.902344 82.851562 " fill-opacity="1" fill-rule="nonzero"/></g></g></g><g clip-path="url(#b81a789210)"><g clip-path="url(#f11ae2f854)"><g clip-path="url(#d75424008d)"><path fill="#ffffff" d="M 346.863281 69.898438 C 346.09375 70.117188 345.34375 70.257812 344.625 70.324219 C 344.164062 70.332031 343.609375 70.308594 342.957031 70.261719 L 341.320312 69.894531 C 340.929688 69.785156 340.679688 69.699219 340.574219 69.644531 C 339.625 69.191406 339.035156 68.855469 338.800781 68.648438 C 338.296875 68.335938 337.898438 67.921875 337.609375 67.40625 C 337.527344 67.046875 337.523438 66.753906 337.597656 66.53125 C 337.730469 66.28125 337.96875 66.035156 338.3125 65.789062 C 338.613281 65.589844 338.875 65.488281 339.085938 65.488281 C 339.183594 65.429688 339.753906 65.460938 340.796875 65.589844 C 342.558594 66.175781 343.675781 66.65625 344.148438 67.019531 C 344.402344 67.074219 345.222656 67.792969 346.605469 69.1875 Z M 346.863281 69.898438 " fill-opacity="1" fill-rule="nonzero"/></g></g></g><g clip-path="url(#f657e30898)"><g clip-path="url(#ab52122d86)"><g clip-path="url(#4de0fe4ac4)"><path fill="#ffffff" d="M 344.167969 58.835938 C 343.578125 58.960938 342.25 58.902344 340.175781 58.65625 C 339.136719 58.378906 338.363281 58.089844 337.851562 57.789062 C 336.703125 57.058594 335.851562 56.445312 335.300781 55.941406 C 334.867188 55.394531 334.667969 54.894531 334.699219 54.445312 C 334.703125 54.027344 334.863281 53.691406 335.179688 53.441406 C 335.71875 53.042969 336.429688 52.867188 337.304688 52.910156 C 337.78125 52.988281 338.265625 53.171875 338.765625 53.453125 L 340.882812 54.988281 C 341.957031 56.003906 342.585938 56.648438 342.757812 56.910156 L 343.71875 58.210938 C 343.785156 58.296875 343.84375 58.453125 343.902344 58.683594 Z M 344.167969 58.835938 " fill-opacity="1" fill-rule="nonzero"/></g></g></g><g clip-path="url(#82da865b51)"><g clip-path="url(#01ea241f7e)"><g clip-path="url(#850845e68e)"><path fill="#ffffff" d="M 342.285156 47.371094 C 341.746094 47.628906 340.824219 47.691406 339.523438 47.5625 C 338.925781 47.515625 337.894531 47.234375 336.425781 46.707031 C 334.90625 45.964844 334.054688 45.453125 333.855469 45.171875 C 333.566406 44.855469 333.328125 44.492188 333.128906 44.070312 C 333.050781 43.875 333.035156 43.652344 333.082031 43.40625 C 333.125 43.117188 333.222656 42.851562 333.394531 42.605469 C 333.757812 42.265625 334.199219 42.007812 334.722656 41.84375 C 335.230469 41.710938 335.867188 41.808594 336.617188 42.152344 C 336.96875 42.179688 338.378906 43.195312 340.859375 45.207031 L 341.476562 45.828125 C 342.113281 46.636719 342.402344 47.046875 342.34375 47.054688 Z M 342.285156 47.371094 " fill-opacity="1" fill-rule="nonzero"/></g></g></g><g clip-path="url(#7374a20a1e)"><g clip-path="url(#f54355acf2)"><g clip-path="url(#2b7d018763)"><path fill="#ffffff" d="M 337.417969 35.015625 C 335.050781 34.015625 333.46875 33.273438 332.664062 32.796875 C 332.332031 32.65625 331.496094 31.972656 330.164062 30.742188 C 329.101562 29.546875 328.816406 28.269531 329.316406 26.910156 C 329.710938 26.273438 330.316406 26.003906 331.132812 26.117188 C 331.835938 26.179688 332.660156 26.675781 333.605469 27.601562 C 333.859375 27.863281 334.09375 28.105469 334.296875 28.339844 L 335.542969 30.027344 L 335.699219 30.296875 L 336.515625 31.980469 C 336.933594 32.980469 337.207031 33.71875 337.324219 34.199219 C 337.355469 34.300781 337.429688 34.460938 337.542969 34.675781 Z M 337.417969 35.015625 " fill-opacity="1" fill-rule="nonzero"/></g></g></g><g clip-path="url(#6b58f90cfd)"><g clip-path="url(#557966e0fb)"><g clip-path="url(#dd9aa960ce)"><path fill="#ffffff" d="M 342.664062 46.558594 C 342.464844 45.933594 342.566406 44.5 342.949219 42.265625 C 343.082031 41.683594 343.3125 41.132812 343.640625 40.621094 L 344.722656 39.257812 C 345.757812 38.242188 346.335938 37.710938 346.449219 37.664062 C 346.953125 37.351562 347.394531 37.28125 347.769531 37.449219 C 348.023438 37.460938 348.238281 37.886719 348.414062 38.71875 C 348.507812 39.175781 348.476562 39.738281 348.324219 40.410156 C 347.945312 41.425781 347.324219 42.457031 346.453125 43.5 C 345.765625 44.1875 345.328125 44.59375 345.148438 44.71875 C 345.195312 44.648438 344.472656 45.140625 342.992188 46.195312 Z M 342.664062 46.558594 " fill-opacity="1" fill-rule="nonzero"/></g></g></g><g clip-path="url(#d77ae8de9d)"><g clip-path="url(#25b46be0bd)"><g clip-path="url(#3c27407417)"><path fill="#ffffff" d="M 344.355469 56.25 C 344.34375 55.722656 344.542969 55.15625 344.941406 54.542969 L 347.054688 51.332031 C 347.71875 50.523438 348.109375 50.097656 348.222656 50.058594 C 348.796875 49.636719 349.191406 49.386719 349.398438 49.300781 C 350.699219 48.660156 351.703125 48.695312 352.414062 49.398438 C 352.652344 49.671875 352.808594 49.90625 352.882812 50.097656 L 352.894531 50.859375 C 352.878906 51.269531 352.664062 51.765625 352.234375 52.351562 L 351.425781 53.226562 C 350.957031 53.625 350.683594 53.867188 350.601562 53.953125 L 349.449219 54.652344 C 348.757812 55 348.195312 55.234375 347.761719 55.351562 L 346.105469 55.851562 C 345.691406 55.917969 345.371094 55.988281 345.152344 56.070312 C 345.050781 56.09375 344.910156 56.101562 344.746094 56.09375 L 344.496094 56.167969 Z M 344.355469 56.25 " fill-opacity="1" fill-rule="nonzero"/></g></g></g><g clip-path="url(#3dfbeeffc7)"><g clip-path="url(#07282110fb)"><g clip-path="url(#e063eb4639)"><path fill="#ffffff" d="M 347.058594 69.675781 C 346.871094 68.625 347.226562 66.875 348.109375 64.433594 C 348.976562 62.84375 349.460938 62.050781 349.558594 62.0625 C 349.972656 61.535156 350.625 61.070312 351.523438 60.652344 C 352.28125 60.367188 352.835938 60.71875 353.1875 61.699219 C 353.328125 62.320312 353.367188 62.710938 353.3125 62.867188 C 353.105469 63.695312 352.90625 64.292969 352.714844 64.648438 C 352.734375 64.71875 352.460938 65.214844 351.902344 66.144531 C 351.507812 66.65625 351.097656 67.117188 350.675781 67.535156 C 350.042969 68.117188 349.679688 68.433594 349.578125 68.488281 C 349.082031 68.875 348.460938 69.207031 347.722656 69.484375 Z M 347.058594 69.675781 " fill-opacity="1" fill-rule="nonzero"/></g></g></g><g clip-path="url(#9b0ef1027a)"><g clip-path="url(#b0922f991b)"><g clip-path="url(#eca567782b)"><path fill="#ffffff" d="M 305.59375 101.355469 C 309.109375 101.925781 312.082031 101.90625 314.519531 101.308594 L 314.527344 101.304688 C 317.660156 100.585938 320.882812 99.382812 324.195312 97.695312 L 324.207031 97.691406 C 326.523438 96.59375 329.703125 94.5 333.738281 91.417969 L 333.734375 91.417969 C 334.949219 90.480469 336.007812 89.625 336.917969 88.855469 L 336.902344 88.867188 C 342.390625 83.863281 345.859375 80.847656 347.316406 79.828125 C 349.734375 78.140625 351.839844 76.996094 353.636719 76.378906 L 353.628906 76.382812 C 357.105469 75.136719 360.316406 74.878906 363.265625 75.613281 C 363.273438 75.613281 363.285156 75.613281 363.292969 75.621094 C 365.714844 76.394531 366.738281 77.355469 366.371094 78.507812 C 366.207031 79.019531 365.734375 79.535156 364.957031 80.035156 C 364.945312 80.042969 364.933594 80.050781 364.914062 80.058594 C 359.789062 82.75 354.667969 81.207031 349.554688 75.433594 C 349.382812 75.234375 349.398438 74.933594 349.601562 74.753906 C 349.800781 74.578125 350.101562 74.597656 350.277344 74.792969 C 355.054688 80.191406 359.785156 81.664062 364.472656 79.207031 L 364.429688 79.230469 C 365.019531 78.847656 365.359375 78.507812 365.453125 78.214844 C 365.625 77.675781 364.808594 77.117188 363 76.535156 L 363.035156 76.546875 C 360.277344 75.859375 357.25 76.109375 353.953125 77.289062 L 353.949219 77.289062 C 352.238281 77.875 350.210938 78.984375 347.871094 80.617188 C 346.445312 81.617188 343.007812 84.605469 337.554688 89.582031 C 337.550781 89.582031 337.546875 89.589844 337.542969 89.589844 C 336.621094 90.371094 335.550781 91.230469 334.324219 92.179688 L 334.320312 92.179688 C 330.234375 95.308594 327 97.4375 324.621094 98.558594 L 324.632812 98.554688 C 321.246094 100.277344 317.953125 101.507812 314.742188 102.242188 L 314.75 102.238281 C 312.191406 102.875 309.085938 102.894531 305.441406 102.308594 C 305.175781 102.265625 305 102.015625 305.042969 101.753906 C 305.085938 101.488281 305.328125 101.316406 305.59375 101.355469 Z M 305.59375 101.355469 " fill-opacity="1" fill-rule="nonzero"/></g></g></g><g clip-path="url(#1b23ea1883)"><g clip-path="url(#ddda4b7324)"><g clip-path="url(#2ecebad94d)"><path fill="#ffffff" d="M 349.617188 75.507812 C 348.058594 73.628906 346.746094 70.941406 345.675781 67.464844 L 345.675781 67.46875 C 345.265625 66.171875 344.914062 64.71875 344.617188 63.113281 L 344.617188 63.132812 C 344.4375 62.316406 343.902344 58.691406 343.027344 52.261719 L 343.03125 52.273438 C 342.550781 49.402344 342.152344 47.367188 341.820312 46.171875 C 341.820312 46.167969 341.820312 46.164062 341.820312 46.152344 C 341.0625 42.886719 339.558594 39.390625 337.3125 35.664062 C 337.175781 35.433594 337.246094 35.140625 337.472656 35.003906 C 337.699219 34.867188 337.996094 34.933594 338.136719 35.164062 C 340.4375 38.976562 341.976562 42.570312 342.757812 45.9375 L 342.75 45.917969 C 343.085938 47.144531 343.496094 49.214844 343.980469 52.117188 L 343.980469 52.132812 C 344.859375 58.535156 345.382812 62.132812 345.558594 62.921875 C 345.5625 62.925781 345.558594 62.933594 345.558594 62.9375 C 345.851562 64.503906 346.195312 65.914062 346.59375 67.179688 C 347.628906 70.539062 348.882812 73.109375 350.359375 74.894531 C 350.527344 75.101562 350.5 75.402344 350.296875 75.574219 C 350.089844 75.738281 349.789062 75.714844 349.617188 75.507812 Z M 349.617188 75.507812 " fill-opacity="1" fill-rule="nonzero"/></g></g></g><g clip-path="url(#57703624e1)"><g clip-path="url(#ae52a6821d)"><g clip-path="url(#e76d30c45e)"><path fill="#ffffff" d="M 305.878906 102.246094 C 301.699219 103.480469 298.011719 103.292969 294.832031 101.675781 C 294.824219 101.667969 294.816406 101.664062 294.8125 101.664062 C 292.929688 100.585938 292.324219 99.460938 293 98.28125 C 293.027344 98.230469 293.058594 98.183594 293.09375 98.136719 L 293.078125 98.15625 C 293.792969 96.960938 295.277344 96.527344 297.546875 96.859375 L 297.558594 96.859375 C 298.558594 97.03125 299.675781 97.4375 300.90625 98.085938 L 300.824219 98.050781 C 300.832031 98.050781 300.84375 98.054688 300.851562 98.0625 C 301.222656 98.1875 302.699219 99.121094 305.273438 100.851562 L 305.246094 100.839844 C 305.679688 101.097656 306.105469 101.292969 306.539062 101.433594 C 306.789062 101.515625 306.925781 101.785156 306.84375 102.039062 C 306.761719 102.292969 306.488281 102.429688 306.234375 102.347656 C 305.742188 102.1875 305.25 101.960938 304.757812 101.667969 C 304.75 101.660156 304.738281 101.660156 304.730469 101.652344 C 302.230469 99.964844 300.828125 99.070312 300.535156 98.96875 C 300.535156 98.96875 300.535156 98.972656 300.542969 98.96875 C 300.511719 98.957031 300.484375 98.949219 300.457031 98.9375 C 299.320312 98.339844 298.296875 97.960938 297.394531 97.808594 L 297.40625 97.8125 C 295.566406 97.542969 294.394531 97.820312 293.902344 98.652344 C 293.898438 98.65625 293.894531 98.664062 293.890625 98.671875 C 293.867188 98.703125 293.855469 98.726562 293.835938 98.753906 C 293.480469 99.378906 293.960938 100.070312 295.285156 100.824219 L 295.265625 100.8125 C 298.222656 102.320312 301.671875 102.488281 305.605469 101.324219 C 305.859375 101.242188 306.125 101.390625 306.203125 101.644531 C 306.277344 101.902344 306.132812 102.167969 305.878906 102.246094 Z M 305.878906 102.246094 " fill-opacity="1" fill-rule="nonzero"/></g></g></g><g clip-path="url(#0375ef164d)"><g clip-path="url(#94172fd964)"><g clip-path="url(#aa21d881f1)"><path fill="#ffffff" d="M 322.730469 108.988281 C 323.730469 108.5625 324.6875 107.40625 325.585938 105.519531 C 325.59375 105.511719 325.597656 105.503906 325.597656 105.496094 C 326.078125 104.351562 326.347656 102.867188 326.40625 101.035156 C 326.410156 101.027344 326.410156 101.019531 326.40625 101.015625 C 326.390625 99.675781 326.273438 98.609375 326.058594 97.816406 C 325.960938 97.460938 325.839844 97.15625 325.703125 96.914062 C 325.300781 97.136719 324.917969 97.339844 324.558594 97.523438 C 323.933594 98.214844 323.386719 98.835938 322.917969 99.386719 C 321.757812 100.753906 321.0625 101.691406 320.832031 102.195312 C 320.007812 103.644531 319.601562 105.003906 319.617188 106.273438 L 319.617188 106.285156 C 319.632812 106.636719 319.667969 106.953125 319.71875 107.242188 C 320.015625 108.765625 320.832031 109.398438 322.179688 109.148438 C 322.363281 109.117188 322.546875 109.066406 322.730469 108.988281 Z M 322.378906 108.09375 C 322.261719 108.144531 322.140625 108.179688 322.023438 108.199219 C 322.019531 108.195312 322.015625 108.199219 322.007812 108.199219 C 321.285156 108.339844 320.839844 107.957031 320.667969 107.058594 C 320.621094 106.824219 320.59375 106.558594 320.578125 106.253906 C 320.570312 105.15625 320.9375 103.957031 321.679688 102.652344 C 321.691406 102.636719 321.699219 102.617188 321.707031 102.605469 C 321.957031 102.011719 323.109375 100.578125 325.152344 98.300781 C 325.164062 98.289062 325.171875 98.277344 325.183594 98.265625 C 325.183594 98.273438 325.1875 98.277344 325.1875 98.28125 C 325.253906 98.246094 325.324219 98.210938 325.390625 98.179688 C 325.324219 98.210938 325.253906 98.246094 325.1875 98.28125 C 325.34375 98.953125 325.429688 99.867188 325.449219 101.015625 C 325.386719 102.714844 325.140625 104.082031 324.714844 105.113281 C 323.917969 106.777344 323.136719 107.769531 322.378906 108.09375 Z M 322.378906 108.09375 " fill-opacity="1" fill-rule="nonzero"/></g></g></g><g clip-path="url(#195b2c0175)"><g clip-path="url(#59f355c0d8)"><g clip-path="url(#1aa31a2227)"><path fill="#ffffff" d="M 334.394531 102.496094 C 335.417969 102.0625 336.222656 101.183594 336.800781 99.859375 C 337.375 98.644531 337.625 96.949219 337.542969 94.769531 L 337.535156 94.753906 C 337.421875 93 337.136719 91.519531 336.675781 90.3125 C 336.589844 90.085938 336.5 89.871094 336.402344 89.664062 C 336.359375 89.570312 336.289062 89.5 336.207031 89.453125 C 335.980469 89.636719 335.75 89.824219 335.507812 90.019531 C 335.515625 90.039062 335.523438 90.054688 335.53125 90.074219 C 335.550781 90.117188 335.574219 90.164062 335.59375 90.207031 C 335.535156 90.210938 335.476562 90.222656 335.425781 90.246094 C 335.339844 90.28125 335.261719 90.339844 335.210938 90.421875 C 334.726562 91.148438 334.296875 91.839844 333.902344 92.503906 C 331.945312 95.8125 331.070312 98.375 331.289062 100.203125 C 331.464844 101.910156 332.230469 102.75 333.574219 102.734375 C 333.609375 102.734375 333.640625 102.730469 333.671875 102.722656 C 333.921875 102.671875 334.164062 102.59375 334.394531 102.496094 Z M 334.003906 101.617188 C 333.847656 101.683594 333.6875 101.730469 333.519531 101.773438 C 332.78125 101.757812 332.359375 101.203125 332.246094 100.101562 L 332.242188 100.097656 C 332.015625 98.160156 333.242188 95.15625 335.929688 91.082031 C 336.265625 92.113281 336.480469 93.351562 336.578125 94.804688 C 336.65625 96.832031 336.441406 98.386719 335.929688 99.453125 L 335.921875 99.472656 C 335.441406 100.558594 334.808594 101.277344 334.003906 101.617188 Z M 334.003906 101.617188 " fill-opacity="1" fill-rule="nonzero"/></g></g></g><g clip-path="url(#593768ad74)"><g clip-path="url(#3e19a4394b)"><g clip-path="url(#0dfa470c11)"><path fill="#ffffff" d="M 344.191406 94.550781 C 344.648438 94.355469 345.121094 93.9375 345.597656 93.300781 C 345.601562 93.292969 345.605469 93.289062 345.613281 93.28125 C 346.53125 91.90625 346.992188 89.976562 346.976562 87.480469 L 346.976562 87.464844 C 346.910156 85.34375 346.574219 83.566406 345.957031 82.125 C 345.863281 81.902344 345.761719 81.6875 345.648438 81.480469 C 345.609375 81.394531 345.539062 81.328125 345.464844 81.285156 C 345.246094 81.46875 345.015625 81.660156 344.773438 81.867188 C 344.78125 81.890625 344.789062 81.910156 344.800781 81.929688 C 344.804688 81.9375 344.808594 81.945312 344.8125 81.957031 C 344.765625 81.949219 344.71875 81.945312 344.671875 81.949219 C 344.53125 82.070312 344.390625 82.191406 344.242188 82.320312 C 344.238281 82.316406 344.238281 82.3125 344.238281 82.3125 C 343.832031 83.101562 343.46875 83.847656 343.140625 84.554688 L 343.144531 84.550781 C 341.773438 87.546875 341.160156 89.796875 341.308594 91.304688 C 341.417969 92.898438 341.933594 93.960938 342.847656 94.480469 L 342.863281 94.484375 C 343.292969 94.71875 343.738281 94.738281 344.191406 94.550781 Z M 343.839844 93.644531 C 343.648438 93.726562 343.472656 93.722656 343.316406 93.636719 C 342.703125 93.285156 342.355469 92.484375 342.269531 91.242188 L 342.269531 91.222656 C 342.097656 89.578125 343.011719 86.816406 344.996094 82.941406 C 345.046875 82.84375 345.09375 82.753906 345.136719 82.664062 C 345.152344 82.699219 345.167969 82.738281 345.183594 82.777344 C 345.292969 82.6875 345.398438 82.597656 345.5 82.507812 C 345.398438 82.597656 345.292969 82.6875 345.183594 82.777344 C 345.675781 84.054688 345.957031 85.625 346.015625 87.484375 C 346.023438 89.773438 345.628906 91.523438 344.820312 92.730469 C 344.457031 93.21875 344.128906 93.523438 343.839844 93.644531 Z M 343.839844 93.644531 " fill-opacity="1" fill-rule="nonzero"/></g></g></g><g clip-path="url(#ad570221e5)"><g clip-path="url(#6a0b11699f)"><g clip-path="url(#54ecf5b4b6)"><path fill="#ffffff" d="M 320.558594 100.140625 C 317.425781 100.496094 314.5625 99.945312 311.972656 98.488281 C 311.964844 98.480469 311.957031 98.480469 311.949219 98.472656 C 310.523438 97.5625 309.664062 96.664062 309.378906 95.769531 C 309.375 95.761719 309.371094 95.757812 309.367188 95.75 C 309.027344 94.496094 309.398438 93.648438 310.480469 93.214844 L 310.492188 93.207031 C 311.761719 92.730469 313.492188 93.078125 315.671875 94.246094 L 315.675781 94.246094 C 317.933594 95.484375 319.925781 97.085938 321.664062 99.058594 C 321.839844 99.257812 321.820312 99.5625 321.621094 99.738281 C 321.421875 99.914062 321.113281 99.894531 320.941406 99.695312 C 319.277344 97.808594 317.367188 96.277344 315.214844 95.089844 L 315.21875 95.09375 C 313.292969 94.0625 311.828125 93.730469 310.832031 94.109375 L 310.84375 94.105469 C 310.289062 94.332031 310.105469 94.792969 310.300781 95.492188 L 310.289062 95.472656 C 310.511719 96.144531 311.234375 96.878906 312.464844 97.664062 L 312.445312 97.648438 C 314.855469 99.007812 317.523438 99.515625 320.449219 99.179688 C 320.710938 99.148438 320.949219 99.339844 320.980469 99.605469 C 321.007812 99.867188 320.820312 100.105469 320.558594 100.140625 Z M 320.558594 100.140625 " fill-opacity="1" fill-rule="nonzero"/></g></g></g><g clip-path="url(#fc314febe5)"><g clip-path="url(#09aa5579d4)"><g clip-path="url(#605bb81b8b)"><path fill="#ffffff" d="M 334.859375 91.660156 C 333.667969 92.132812 331.90625 92.394531 329.566406 92.4375 C 327.925781 92.46875 326.339844 92.207031 324.792969 91.660156 C 324.789062 91.660156 324.78125 91.652344 324.773438 91.648438 C 323.296875 91.050781 322.355469 90.277344 321.949219 89.328125 C 321.933594 89.292969 321.925781 89.261719 321.921875 89.222656 C 321.679688 87.972656 322.226562 87.117188 323.566406 86.640625 L 323.578125 86.636719 C 326.574219 85.683594 330.429688 87.058594 335.152344 90.757812 C 335.359375 90.925781 335.394531 91.226562 335.234375 91.433594 C 335.070312 91.644531 334.765625 91.683594 334.558594 91.519531 C 330.105469 88.027344 326.542969 86.707031 323.875 87.554688 L 323.886719 87.550781 C 323.066406 87.835938 322.726562 88.335938 322.863281 89.042969 L 322.835938 88.945312 C 323.136719 89.652344 323.90625 90.257812 325.136719 90.757812 L 325.117188 90.75 C 326.546875 91.261719 328.027344 91.503906 329.546875 91.476562 C 331.769531 91.433594 333.421875 91.195312 334.503906 90.765625 C 334.75 90.667969 335.027344 90.785156 335.128906 91.03125 C 335.226562 91.277344 335.105469 91.558594 334.859375 91.660156 Z M 334.859375 91.660156 " fill-opacity="1" fill-rule="nonzero"/></g></g></g><g clip-path="url(#901b675e97)"><g clip-path="url(#1a5a16e937)"><g clip-path="url(#6d0e88084c)"><path fill="#ffffff" d="M 343.492188 83.636719 C 342.625 83.886719 341.070312 83.785156 338.832031 83.328125 C 338.824219 83.324219 338.820312 83.328125 338.816406 83.324219 C 337.128906 82.90625 335.804688 82.359375 334.828125 81.683594 L 334.820312 81.679688 C 333.476562 80.71875 332.699219 79.820312 332.5 78.980469 C 332.5 78.976562 332.496094 78.96875 332.492188 78.957031 C 332.292969 77.859375 332.828125 77.121094 334.109375 76.726562 L 334.097656 76.726562 C 335.488281 76.277344 337.257812 76.648438 339.402344 77.851562 L 339.398438 77.855469 C 341.453125 79.003906 343.152344 80.617188 344.496094 82.695312 C 344.636719 82.925781 344.574219 83.21875 344.351562 83.363281 C 344.128906 83.507812 343.828125 83.445312 343.683594 83.21875 C 342.429688 81.273438 340.84375 79.761719 338.929688 78.695312 C 337.03125 77.632812 335.519531 77.277344 334.398438 77.644531 L 334.390625 77.648438 C 333.660156 77.871094 333.34375 78.25 333.441406 78.78125 L 333.4375 78.757812 C 333.582031 79.363281 334.226562 80.074219 335.378906 80.898438 L 335.371094 80.890625 C 336.257812 81.5 337.476562 81.996094 339.046875 82.390625 L 339.027344 82.382812 C 341.109375 82.808594 342.507812 82.921875 343.222656 82.710938 C 343.480469 82.636719 343.75 82.789062 343.824219 83.046875 C 343.894531 83.296875 343.746094 83.566406 343.492188 83.636719 Z M 343.492188 83.636719 " fill-opacity="1" fill-rule="nonzero"/></g></g></g><g clip-path="url(#8968e3840c)"><g clip-path="url(#b0fbe4e306)"><g clip-path="url(#f9afd8637e)"><path fill="#ffffff" d="M 337.25 35.574219 C 335.644531 35.109375 334.0625 34.410156 332.492188 33.476562 L 332.484375 33.46875 C 331.183594 32.652344 330.226562 31.816406 329.609375 30.972656 L 329.601562 30.960938 C 328.285156 29.039062 327.980469 27.570312 328.691406 26.554688 C 328.707031 26.539062 328.71875 26.519531 328.734375 26.5 C 329.785156 25.390625 331.148438 25.367188 332.828125 26.445312 C 333.746094 27.027344 334.648438 28.046875 335.542969 29.5 C 336.234375 30.632812 337.203125 32.71875 338.464844 35.777344 C 338.566406 36.019531 338.449219 36.300781 338.203125 36.402344 C 337.957031 36.503906 337.675781 36.390625 337.574219 36.136719 C 336.335938 33.132812 335.382812 31.089844 334.722656 30.003906 C 333.90625 28.675781 333.105469 27.761719 332.3125 27.257812 C 331.078125 26.46875 330.117188 26.4375 329.4375 27.164062 L 329.480469 27.109375 C 329.023438 27.761719 329.328125 28.859375 330.394531 30.417969 L 330.390625 30.402344 C 330.933594 31.152344 331.800781 31.902344 332.996094 32.65625 L 332.988281 32.648438 C 334.484375 33.539062 335.996094 34.207031 337.515625 34.644531 C 337.773438 34.722656 337.921875 34.988281 337.84375 35.242188 C 337.773438 35.496094 337.507812 35.644531 337.25 35.574219 Z M 337.25 35.574219 " fill-opacity="1" fill-rule="nonzero"/></g></g></g><g clip-path="url(#f27c3ccef6)"><g clip-path="url(#a4da3ca9b4)"><g clip-path="url(#5738f2bf5d)"><path fill="#ffffff" d="M 342.207031 46.414062 C 341.917969 45.316406 341.941406 44.027344 342.289062 42.558594 L 342.289062 42.566406 C 342.550781 41.3125 343.101562 40.125 343.929688 38.992188 L 343.921875 39 C 344.515625 38.160156 345.179688 37.503906 345.898438 37.023438 L 345.902344 37.023438 C 346.542969 36.617188 347.140625 36.460938 347.699219 36.558594 C 347.738281 36.5625 347.773438 36.578125 347.808594 36.585938 C 348.960938 37.082031 349.363281 38.296875 349.011719 40.238281 C 349.007812 40.253906 349 40.273438 349 40.292969 C 348.132812 43.121094 346.023438 45.363281 342.671875 47.015625 C 342.433594 47.132812 342.148438 47.03125 342.027344 46.792969 C 341.910156 46.554688 342.007812 46.269531 342.246094 46.148438 C 345.347656 44.621094 347.292969 42.574219 348.078125 40.007812 L 348.0625 40.0625 C 348.324219 38.628906 348.113281 37.765625 347.425781 37.472656 L 347.535156 37.507812 C 347.21875 37.453125 346.847656 37.5625 346.421875 37.835938 L 346.429688 37.828125 C 345.808594 38.242188 345.234375 38.816406 344.710938 39.554688 L 344.703125 39.5625 C 343.957031 40.582031 343.464844 41.652344 343.226562 42.765625 L 343.226562 42.777344 C 342.914062 44.089844 342.886719 45.222656 343.140625 46.167969 C 343.207031 46.429688 343.054688 46.691406 342.796875 46.757812 C 342.539062 46.828125 342.273438 46.675781 342.207031 46.414062 Z M 342.207031 46.414062 " fill-opacity="1" fill-rule="nonzero"/></g></g></g><g clip-path="url(#c598603cf6)"><g clip-path="url(#63a1382a3f)"><g clip-path="url(#69a8311982)"><path fill="#ffffff" d="M 342.863281 47.855469 C 342.226562 48.25 341.304688 48.410156 340.101562 48.332031 C 340.097656 48.332031 340.089844 48.332031 340.082031 48.332031 C 338.390625 48.152344 337.097656 47.839844 336.207031 47.402344 L 336.210938 47.40625 C 335.117188 46.878906 334.25 46.253906 333.621094 45.535156 L 333.632812 45.546875 C 332.820312 44.671875 332.425781 43.820312 332.457031 42.988281 C 332.457031 42.964844 332.460938 42.945312 332.460938 42.929688 C 332.59375 42.078125 333.136719 41.558594 334.085938 41.367188 L 334.082031 41.367188 C 334.871094 41.199219 335.78125 41.359375 336.800781 41.855469 L 336.804688 41.855469 C 338.566406 42.714844 340.613281 44.554688 342.957031 47.382812 C 343.128906 47.589844 343.101562 47.890625 342.898438 48.0625 C 342.691406 48.230469 342.390625 48.203125 342.21875 47.996094 C 339.964844 45.277344 338.015625 43.519531 336.382812 42.71875 C 335.558594 42.324219 334.855469 42.183594 334.28125 42.308594 L 334.277344 42.308594 C 333.765625 42.414062 333.476562 42.667969 333.414062 43.078125 L 333.421875 43.019531 C 333.398438 43.589844 333.703125 44.214844 334.335938 44.890625 L 334.347656 44.898438 C 334.890625 45.523438 335.652344 46.066406 336.628906 46.539062 L 336.632812 46.539062 C 337.417969 46.929688 338.605469 47.207031 340.183594 47.375 L 340.164062 47.375 C 341.160156 47.4375 341.894531 47.324219 342.363281 47.035156 C 342.589844 46.898438 342.886719 46.96875 343.019531 47.195312 C 343.164062 47.421875 343.09375 47.71875 342.863281 47.855469 Z M 342.863281 47.855469 " fill-opacity="1" fill-rule="nonzero"/></g></g></g><g clip-path="url(#b2e8cee738)"><g clip-path="url(#0c51b15b3c)"><g clip-path="url(#723c35fd7b)"><path fill="#ffffff" d="M 344.5 59.226562 C 343.71875 59.566406 342.695312 59.652344 341.429688 59.480469 C 340.011719 59.292969 338.765625 58.917969 337.6875 58.347656 L 337.695312 58.351562 C 336.523438 57.765625 335.597656 57.074219 334.902344 56.273438 C 334.894531 56.261719 334.882812 56.253906 334.878906 56.238281 C 334.097656 55.164062 333.886719 54.289062 334.238281 53.617188 L 334.230469 53.640625 C 334.558594 52.933594 335.207031 52.53125 336.179688 52.433594 L 336.191406 52.429688 C 337.027344 52.367188 337.90625 52.589844 338.835938 53.089844 L 338.816406 53.078125 C 339.476562 53.398438 340.277344 53.996094 341.207031 54.867188 C 341.738281 55.355469 342.871094 56.597656 344.609375 58.597656 C 344.785156 58.796875 344.761719 59.097656 344.5625 59.273438 C 344.359375 59.449219 344.058594 59.429688 343.882812 59.230469 C 342.167969 57.257812 341.058594 56.039062 340.554688 55.574219 C 339.6875 54.765625 338.972656 54.226562 338.398438 53.949219 C 338.390625 53.945312 338.378906 53.945312 338.371094 53.9375 C 337.609375 53.523438 336.90625 53.339844 336.265625 53.390625 L 336.277344 53.390625 C 335.671875 53.453125 335.277344 53.667969 335.101562 54.046875 C 335.101562 54.050781 335.09375 54.058594 335.09375 54.070312 C 334.921875 54.386719 335.113281 54.921875 335.660156 55.679688 L 335.632812 55.648438 C 336.238281 56.347656 337.070312 56.960938 338.125 57.492188 L 338.132812 57.496094 C 339.109375 58.011719 340.257812 58.355469 341.554688 58.523438 C 342.648438 58.671875 343.496094 58.613281 344.109375 58.347656 C 344.351562 58.238281 344.636719 58.347656 344.746094 58.589844 C 344.851562 58.839844 344.742188 59.117188 344.5 59.226562 Z M 344.5 59.226562 " fill-opacity="1" fill-rule="nonzero"/></g></g></g><g clip-path="url(#e8733eccf7)"><g clip-path="url(#2bb480ad2f)"><g clip-path="url(#39f05cd023)"><path fill="#ffffff" d="M 343.871094 56.199219 C 344.1875 54.691406 345.058594 52.96875 346.484375 51.046875 C 346.492188 51.039062 346.496094 51.03125 346.503906 51.023438 C 347.757812 49.535156 349.058594 48.601562 350.402344 48.230469 L 350.417969 48.222656 C 351.808594 47.886719 352.683594 48.21875 353.046875 49.214844 C 353.050781 49.222656 353.050781 49.226562 353.054688 49.230469 C 353.378906 50.253906 353.070312 51.414062 352.128906 52.710938 C 352.121094 52.71875 352.113281 52.726562 352.113281 52.730469 C 350.5625 54.625 348.144531 55.933594 344.855469 56.648438 C 344.59375 56.703125 344.339844 56.539062 344.285156 56.28125 C 344.226562 56.019531 344.394531 55.765625 344.652344 55.710938 C 347.722656 55.039062 349.960938 53.847656 351.367188 52.121094 L 351.351562 52.144531 C 352.101562 51.109375 352.363281 50.238281 352.132812 49.523438 L 352.140625 49.542969 C 351.972656 49.085938 351.476562 48.957031 350.644531 49.164062 L 350.660156 49.15625 C 349.507812 49.480469 348.367188 50.304688 347.238281 51.640625 L 347.257812 51.617188 C 345.914062 53.429688 345.101562 55.023438 344.816406 56.398438 C 344.761719 56.652344 344.507812 56.820312 344.246094 56.765625 C 343.984375 56.714844 343.820312 56.460938 343.871094 56.199219 Z M 343.871094 56.199219 " fill-opacity="1" fill-rule="nonzero"/></g></g></g><g clip-path="url(#28aab3c60b)"><g clip-path="url(#8e35faf773)"><g clip-path="url(#6783b40f09)"><path fill="#ffffff" d="M 346.742188 69.515625 C 346.566406 68.726562 346.660156 67.652344 347.027344 66.292969 L 347.03125 66.289062 C 347.515625 64.59375 348.105469 63.246094 348.804688 62.238281 L 348.8125 62.226562 C 350.46875 59.984375 351.800781 59.238281 352.816406 59.984375 C 353.054688 60.167969 353.265625 60.425781 353.433594 60.765625 C 353.445312 60.777344 353.453125 60.792969 353.457031 60.808594 C 353.996094 62.148438 353.695312 63.828125 352.554688 65.839844 L 352.5625 65.824219 C 351.878906 67.125 350.261719 68.617188 347.699219 70.308594 C 347.476562 70.453125 347.179688 70.394531 347.035156 70.167969 C 346.886719 69.949219 346.949219 69.648438 347.171875 69.503906 C 349.589844 67.90625 351.105469 66.527344 351.707031 65.382812 L 351.71875 65.367188 C 352.707031 63.621094 352.988281 62.21875 352.5625 61.167969 L 352.582031 61.203125 C 352.472656 60.996094 352.363281 60.847656 352.242188 60.761719 C 351.746094 60.394531 350.859375 61.074219 349.585938 62.796875 L 349.597656 62.785156 C 348.960938 63.707031 348.414062 64.964844 347.957031 66.550781 L 347.960938 66.542969 C 347.632812 67.753906 347.539062 68.671875 347.683594 69.300781 C 347.742188 69.558594 347.578125 69.820312 347.320312 69.878906 C 347.0625 69.9375 346.804688 69.773438 346.742188 69.515625 Z M 346.742188 69.515625 " fill-opacity="1" fill-rule="nonzero"/></g></g></g><g clip-path="url(#f19df7c075)"><g clip-path="url(#43deaeb557)"><g clip-path="url(#3c757979d5)"><path fill="#ffffff" d="M 347.453125 70.277344 C 345.378906 71.167969 343.316406 71.316406 341.261719 70.722656 C 341.253906 70.71875 341.246094 70.71875 341.242188 70.714844 C 339.761719 70.214844 338.632812 69.632812 337.863281 68.960938 C 336.878906 68.121094 336.492188 67.292969 336.691406 66.484375 C 336.695312 66.472656 336.699219 66.457031 336.703125 66.445312 C 337.140625 65.152344 338.636719 64.820312 341.179688 65.445312 C 341.1875 65.445312 341.203125 65.453125 341.21875 65.457031 C 343.683594 66.277344 345.832031 67.550781 347.65625 69.265625 C 347.847656 69.449219 347.859375 69.753906 347.675781 69.945312 C 347.492188 70.136719 347.191406 70.148438 346.992188 69.96875 C 345.273438 68.347656 343.25 67.148438 340.910156 66.371094 L 340.949219 66.378906 C 338.980469 65.898438 337.867188 66.019531 337.613281 66.753906 L 337.625 66.714844 C 337.523438 67.140625 337.804688 67.648438 338.488281 68.234375 L 338.492188 68.230469 C 339.167969 68.820312 340.1875 69.347656 341.550781 69.804688 L 341.527344 69.796875 C 343.359375 70.328125 345.210938 70.191406 347.074219 69.394531 C 347.320312 69.285156 347.605469 69.398438 347.707031 69.644531 C 347.8125 69.890625 347.699219 70.175781 347.453125 70.277344 Z M 347.453125 70.277344 " fill-opacity="1" fill-rule="nonzero"/></g></g></g><g fill="#ffffff" fill-opacity="1"><g transform="translate(97.649504, 82.566035)"><g><path d="M 49.765625 -11.671875 C 49.929688 -11.429688 49.988281 -11.179688 49.9375 -10.921875 C 49.894531 -10.671875 49.753906 -10.460938 49.515625 -10.296875 C 44.242188 -6.523438 39.4375 -2.957031 35.09375 0.40625 C 35.539062 1.800781 35.59375 3.328125 35.25 4.984375 C 34.707031 7.878906 33.726562 10.570312 32.3125 13.0625 C 30.90625 15.5625 29.257812 17.835938 27.375 19.890625 C 25.488281 21.941406 23.519531 23.707031 21.46875 25.1875 C 19.414062 26.664062 17.453125 27.820312 15.578125 28.65625 C 13.710938 29.488281 12.101562 29.953125 10.75 30.046875 C 10.539062 30.085938 10.351562 30.109375 10.1875 30.109375 C 9.132812 30.109375 8.382812 29.894531 7.9375 29.46875 C 7.5 29.039062 7.210938 28.640625 7.078125 28.265625 C 6.296875 26.128906 8.117188 22.609375 12.546875 17.703125 C 16.984375 12.796875 23.703125 6.828125 32.703125 -0.203125 C 31.578125 -2.203125 29.328125 -4.050781 25.953125 -5.75 C 22.578125 -7.445312 18.101562 -9.421875 12.53125 -11.671875 C 11.882812 -11.941406 11.222656 -12.210938 10.546875 -12.484375 C 9.867188 -12.753906 9.171875 -13.039062 8.453125 -13.34375 C 6.003906 -14.363281 4.304688 -15.738281 3.359375 -17.46875 C 2.410156 -19.195312 2.289062 -21.1875 3 -23.4375 C 3.539062 -25.164062 4.488281 -26.925781 5.84375 -28.71875 C 7.207031 -30.519531 8.859375 -32.3125 10.796875 -34.09375 C 12.734375 -35.882812 14.835938 -37.582031 17.109375 -39.1875 C 19.390625 -40.800781 21.71875 -42.269531 24.09375 -43.59375 C 26.46875 -44.925781 28.789062 -46.050781 31.0625 -46.96875 C 33.34375 -47.882812 35.441406 -48.523438 37.359375 -48.890625 C 39.273438 -49.265625 40.898438 -49.300781 42.234375 -49 C 42.773438 -48.863281 43.375 -48.609375 44.03125 -48.234375 C 44.695312 -47.859375 45.222656 -47.253906 45.609375 -46.421875 C 46.003906 -45.597656 46.117188 -44.453125 45.953125 -42.984375 C 45.878906 -42.710938 45.738281 -42.5 45.53125 -42.34375 C 45.332031 -42.195312 45.097656 -42.140625 44.828125 -42.171875 C 44.554688 -42.210938 44.332031 -42.34375 44.15625 -42.5625 C 43.988281 -42.78125 43.921875 -43.023438 43.953125 -43.296875 C 44.160156 -44.722656 44.007812 -45.671875 43.5 -46.140625 C 42.988281 -46.617188 42.425781 -46.925781 41.8125 -47.0625 C 40.53125 -47.375 38.828125 -47.273438 36.703125 -46.765625 C 34.578125 -46.253906 32.207031 -45.394531 29.59375 -44.1875 C 26.976562 -42.976562 24.296875 -41.492188 21.546875 -39.734375 C 18.628906 -37.898438 16.003906 -35.988281 13.671875 -34 C 11.347656 -32.007812 9.429688 -30.0625 7.921875 -28.15625 C 6.410156 -26.257812 5.398438 -24.5 4.890625 -22.875 C 3.765625 -19.375 5.207031 -16.789062 9.21875 -15.125 C 9.9375 -14.851562 10.625 -14.582031 11.28125 -14.3125 C 11.945312 -14.039062 12.617188 -13.769531 13.296875 -13.5 C 16.722656 -12.101562 19.835938 -10.785156 22.640625 -9.546875 C 25.441406 -8.304688 27.832031 -7.039062 29.8125 -5.75 C 31.800781 -4.457031 33.289062 -3.015625 34.28125 -1.421875 C 38.5625 -4.753906 43.265625 -8.238281 48.390625 -11.875 C 48.628906 -12.039062 48.875 -12.097656 49.125 -12.046875 C 49.382812 -11.992188 49.597656 -11.867188 49.765625 -11.671875 Z M 33.359375 4.578125 C 33.566406 3.566406 33.585938 2.617188 33.421875 1.734375 C 26.179688 7.398438 20.441406 12.390625 16.203125 16.703125 C 13.722656 19.253906 11.816406 21.519531 10.484375 23.5 C 9.160156 25.488281 8.632812 26.859375 8.90625 27.609375 C 9.007812 27.878906 9.25 28.039062 9.625 28.09375 C 10 28.144531 10.320312 28.15625 10.59375 28.125 C 11.71875 28.050781 13.128906 27.625 14.828125 26.84375 C 16.523438 26.0625 18.320312 24.984375 20.21875 23.609375 C 22.125 22.234375 23.972656 20.59375 25.765625 18.6875 C 27.566406 16.789062 29.144531 14.648438 30.5 12.265625 C 31.863281 9.890625 32.816406 7.328125 33.359375 4.578125 Z M 33.359375 4.578125 "/></g></g></g><g fill="#ffffff" fill-opacity="1"><g transform="translate(145.429272, 82.566035)"><g><path d="M 21.953125 -11.453125 C 22.160156 -11.316406 22.296875 -11.113281 22.359375 -10.84375 C 22.429688 -10.570312 22.398438 -10.335938 22.265625 -10.140625 C 21.410156 -8.742188 20.3125 -7.28125 18.96875 -5.75 C 17.632812 -4.226562 16.203125 -2.796875 14.671875 -1.453125 C 13.140625 -0.109375 11.609375 0.984375 10.078125 1.828125 C 8.554688 2.679688 7.179688 3.109375 5.953125 3.109375 C 5.679688 3.109375 5.429688 3.09375 5.203125 3.0625 C 4.648438 2.957031 4.066406 2.65625 3.453125 2.15625 C 2.847656 1.664062 2.425781 0.796875 2.1875 -0.453125 C 2.125 -0.796875 2.207031 -1.101562 2.4375 -1.375 C 2.675781 -1.644531 3.050781 -2 3.5625 -2.4375 C 3.96875 -2.78125 4.414062 -3.1875 4.90625 -3.65625 C 5.40625 -4.132812 5.875 -4.648438 6.3125 -5.203125 C 6.988281 -6.117188 7.429688 -6.957031 7.640625 -7.71875 C 7.847656 -8.476562 7.914062 -9.015625 7.84375 -9.328125 C 7.675781 -9.253906 7.335938 -8.992188 6.828125 -8.546875 C 6.316406 -8.109375 5.632812 -7.226562 4.78125 -5.90625 C 3.769531 -4.375 2.863281 -2.664062 2.0625 -0.78125 C 1.257812 1.09375 0.519531 3.015625 -0.15625 4.984375 C -0.832031 6.960938 -1.441406 8.847656 -1.984375 10.640625 L -2.234375 11.359375 C -2.367188 11.796875 -2.675781 12.015625 -3.15625 12.015625 C -3.226562 12.015625 -3.28125 12.015625 -3.3125 12.015625 C -3.882812 11.921875 -4.15625 11.582031 -4.125 11 C -4.125 10.726562 -3.992188 9.957031 -3.734375 8.6875 C -3.484375 7.414062 -3.144531 5.785156 -2.71875 3.796875 C -2.300781 1.804688 -1.828125 -0.398438 -1.296875 -2.828125 C -0.773438 -5.253906 -0.21875 -7.75 0.375 -10.3125 C 0.96875 -12.875 1.546875 -15.382812 2.109375 -17.84375 C 2.671875 -20.3125 3.191406 -22.582031 3.671875 -24.65625 C 3.703125 -24.71875 3.71875 -24.800781 3.71875 -24.90625 C 4.332031 -27.457031 4.804688 -29.445312 5.140625 -30.875 C 5.921875 -33.988281 6.785156 -36.828125 7.734375 -39.390625 C 8.691406 -41.960938 9.632812 -44.019531 10.5625 -45.5625 C 11.5 -47.101562 12.34375 -47.960938 13.09375 -48.140625 C 13.632812 -48.234375 14.078125 -48.046875 14.421875 -47.578125 C 14.890625 -46.929688 14.84375 -45.535156 14.28125 -43.390625 C 13.726562 -41.253906 12.703125 -38.539062 11.203125 -35.25 C 9.710938 -31.957031 7.847656 -28.269531 5.609375 -24.1875 C 5.097656 -22.082031 4.550781 -19.78125 3.96875 -17.28125 C 3.394531 -14.789062 2.816406 -12.253906 2.234375 -9.671875 C 1.660156 -7.097656 1.117188 -4.640625 0.609375 -2.296875 C 0.984375 -3.109375 1.378906 -3.910156 1.796875 -4.703125 C 2.222656 -5.503906 2.660156 -6.265625 3.109375 -6.984375 C 5.046875 -9.960938 6.707031 -11.40625 8.09375 -11.3125 C 8.8125 -11.238281 9.304688 -10.863281 9.578125 -10.1875 C 9.910156 -9.476562 9.90625 -8.535156 9.5625 -7.359375 C 9.226562 -6.191406 8.65625 -5.0625 7.84375 -3.96875 C 7.363281 -3.363281 6.851562 -2.804688 6.3125 -2.296875 C 5.769531 -1.785156 5.28125 -1.34375 4.84375 -0.96875 C 4.738281 -0.863281 4.625 -0.757812 4.5 -0.65625 C 4.382812 -0.5625 4.296875 -0.476562 4.234375 -0.40625 C 4.367188 0.164062 4.570312 0.550781 4.84375 0.75 C 5.113281 0.957031 5.347656 1.082031 5.546875 1.125 C 6.296875 1.257812 7.289062 1.03125 8.53125 0.4375 C 9.769531 -0.15625 11.109375 -1.03125 12.546875 -2.1875 C 13.992188 -3.34375 15.429688 -4.691406 16.859375 -6.234375 C 18.285156 -7.785156 19.523438 -9.425781 20.578125 -11.15625 C 20.710938 -11.394531 20.914062 -11.539062 21.1875 -11.59375 C 21.457031 -11.644531 21.710938 -11.597656 21.953125 -11.453125 Z M 12.6875 -45.28125 C 12.101562 -44.4375 11.328125 -42.9375 10.359375 -40.78125 C 9.390625 -38.625 8.429688 -35.691406 7.484375 -31.984375 C 9.179688 -35.421875 10.425781 -38.238281 11.21875 -40.4375 C 12.019531 -42.644531 12.507812 -44.257812 12.6875 -45.28125 Z M 12.6875 -45.28125 "/></g></g></g><g fill="#ffffff" fill-opacity="1"><g transform="translate(165.295054, 82.566035)"><g><path d="M 24.90625 -11.203125 C 25.070312 -11.003906 25.117188 -10.765625 25.046875 -10.484375 C 24.984375 -10.210938 24.851562 -10.007812 24.65625 -9.875 C 22.175781 -8.25 19.6875 -6.492188 17.1875 -4.609375 C 14.695312 -2.722656 12.257812 -0.59375 9.875 1.78125 C 7.875 13.769531 5.6875 23.5 3.3125 30.96875 C 2.800781 32.5 2.25 34.050781 1.65625 35.625 C 1.0625 37.207031 0.414062 38.6875 -0.28125 40.0625 C -0.976562 41.4375 -1.71875 42.585938 -2.5 43.515625 C -3.28125 44.453125 -4.078125 45.039062 -4.890625 45.28125 C -5.128906 45.351562 -5.382812 45.390625 -5.65625 45.390625 C -6.4375 45.390625 -7.113281 45.046875 -7.6875 44.359375 C -8.40625 43.441406 -8.875 42.050781 -9.09375 40.1875 C -9.3125 38.320312 -9.265625 36.128906 -8.953125 33.609375 C -8.648438 31.097656 -8.066406 28.429688 -7.203125 25.609375 C -6.335938 22.796875 -5.175781 20 -3.71875 17.21875 C -1.945312 13.851562 -0.0703125 10.828125 1.90625 8.140625 C 3.894531 5.460938 5.957031 3.019531 8.09375 0.8125 C 8.601562 -2.375 9.113281 -5.71875 9.625 -9.21875 C 9.1875 -8.539062 8.710938 -7.851562 8.203125 -7.15625 C 7.691406 -6.457031 7.179688 -5.804688 6.671875 -5.203125 C 5.992188 -4.378906 5.363281 -3.847656 4.78125 -3.609375 C 4.207031 -3.378906 3.71875 -3.296875 3.3125 -3.359375 C 2.90625 -3.429688 2.597656 -3.535156 2.390625 -3.671875 C 1.640625 -4.109375 1.128906 -4.894531 0.859375 -6.03125 C 0.585938 -7.175781 0.550781 -8.523438 0.75 -10.078125 C 0.957031 -11.640625 1.40625 -13.269531 2.09375 -14.96875 C 2.1875 -15.207031 2.359375 -15.378906 2.609375 -15.484375 C 2.867188 -15.585938 3.117188 -15.585938 3.359375 -15.484375 C 3.597656 -15.378906 3.773438 -15.207031 3.890625 -14.96875 C 4.015625 -14.738281 4.023438 -14.488281 3.921875 -14.21875 C 3.242188 -12.613281 2.828125 -11.175781 2.671875 -9.90625 C 2.515625 -8.632812 2.519531 -7.597656 2.6875 -6.796875 C 2.863281 -6.003906 3.101562 -5.519531 3.40625 -5.34375 C 3.78125 -5.101562 4.359375 -5.460938 5.140625 -6.421875 C 5.816406 -7.234375 6.492188 -8.128906 7.171875 -9.109375 C 7.859375 -10.097656 8.476562 -11.039062 9.03125 -11.9375 C 9.59375 -12.84375 10.046875 -13.582031 10.390625 -14.15625 C 10.660156 -14.632812 11.050781 -14.789062 11.5625 -14.625 C 12.070312 -14.414062 12.289062 -14.054688 12.21875 -13.546875 C 11.644531 -9.304688 11.050781 -5.285156 10.4375 -1.484375 C 12.582031 -3.484375 14.753906 -5.296875 16.953125 -6.921875 C 19.160156 -8.554688 21.367188 -10.085938 23.578125 -11.515625 C 23.785156 -11.648438 24.023438 -11.691406 24.296875 -11.640625 C 24.566406 -11.585938 24.769531 -11.441406 24.90625 -11.203125 Z M 1.421875 30.40625 C 3.597656 23.613281 5.617188 14.9375 7.484375 4.375 C 5.785156 6.28125 4.140625 8.359375 2.546875 10.609375 C 0.953125 12.867188 -0.554688 15.378906 -1.984375 18.140625 C -3.515625 21.085938 -4.6875 23.9375 -5.5 26.6875 C -6.3125 29.4375 -6.828125 31.945312 -7.046875 34.21875 C -7.273438 36.5 -7.296875 38.410156 -7.109375 39.953125 C -6.921875 41.503906 -6.601562 42.550781 -6.15625 43.09375 C -5.988281 43.300781 -5.84375 43.410156 -5.71875 43.421875 C -5.601562 43.441406 -5.515625 43.4375 -5.453125 43.40625 C -5.316406 43.363281 -5.0625 43.195312 -4.6875 42.90625 C -4.3125 42.625 -3.816406 42.050781 -3.203125 41.1875 C -2.597656 40.320312 -1.90625 39.03125 -1.125 37.3125 C -0.34375 35.59375 0.503906 33.289062 1.421875 30.40625 Z M 1.421875 30.40625 "/></g></g></g><g fill="#ffffff" fill-opacity="1"><g transform="translate(187.860546, 82.566035)"><g><path d="M 45.390625 -12.6875 C 45.523438 -12.445312 45.539062 -12.195312 45.4375 -11.9375 C 45.332031 -11.6875 45.160156 -11.507812 44.921875 -11.40625 C 43.910156 -10.9375 42.554688 -10.539062 40.859375 -10.21875 C 39.160156 -9.894531 37.207031 -9.578125 35 -9.265625 C 34.488281 -6.960938 33.957031 -4.484375 33.40625 -1.828125 C 32.863281 0.816406 32.347656 3.488281 31.859375 6.1875 C 31.367188 8.882812 30.910156 11.476562 30.484375 13.96875 C 30.054688 16.46875 29.695312 18.753906 29.40625 20.828125 C 29.125 22.898438 28.898438 24.632812 28.734375 26.03125 C 29.003906 25.894531 29.273438 25.878906 29.546875 25.984375 C 29.785156 26.078125 29.960938 26.242188 30.078125 26.484375 C 30.191406 26.722656 30.21875 26.976562 30.15625 27.25 C 29.78125 28.269531 29.429688 29.082031 29.109375 29.6875 C 28.785156 30.300781 28.382812 30.609375 27.90625 30.609375 C 27.8125 30.609375 27.695312 30.59375 27.5625 30.5625 C 27.050781 30.394531 26.75 29.9375 26.65625 29.1875 C 26.570312 28.4375 26.648438 26.992188 26.890625 24.859375 C 27.203125 22.171875 27.726562 18.570312 28.46875 14.0625 C 28.976562 11.175781 29.519531 8.1875 30.09375 5.09375 C 30.675781 2 31.253906 -0.9375 31.828125 -3.71875 C 28.941406 1.539062 26.054688 5.945312 23.171875 9.5 C 20.285156 13.050781 17.535156 15.597656 14.921875 17.140625 C 12.304688 18.679688 9.945312 19.0625 7.84375 18.28125 C 5.90625 17.570312 4.492188 15.953125 3.609375 13.421875 C 2.734375 10.890625 2.40625 7.617188 2.625 3.609375 C 2.84375 -0.390625 3.648438 -4.9375 5.046875 -10.03125 C 5.617188 -12.207031 6.40625 -14.59375 7.40625 -17.1875 C 8.40625 -19.789062 9.539062 -22.457031 10.8125 -25.1875 C 12.09375 -27.914062 13.476562 -30.601562 14.96875 -33.25 C 16.46875 -35.90625 18.003906 -38.378906 19.578125 -40.671875 C 21.160156 -42.960938 22.734375 -44.941406 24.296875 -46.609375 C 25.859375 -48.273438 27.410156 -49.378906 28.953125 -49.921875 C 30.503906 -50.460938 31.875 -50.410156 33.0625 -49.765625 C 33.632812 -49.460938 34.207031 -48.875 34.78125 -48 C 35.363281 -47.132812 35.796875 -45.851562 36.078125 -44.15625 C 36.367188 -42.457031 36.378906 -40.195312 36.109375 -37.375 C 35.835938 -34.5625 35.125 -31.035156 33.96875 -26.796875 C 33.90625 -26.523438 33.753906 -26.320312 33.515625 -26.1875 C 33.273438 -26.050781 33.035156 -26.015625 32.796875 -26.078125 C 32.523438 -26.148438 32.320312 -26.300781 32.1875 -26.53125 C 32.050781 -26.769531 32.019531 -27.023438 32.09375 -27.296875 C 33.28125 -31.710938 33.984375 -35.378906 34.203125 -38.296875 C 34.421875 -41.222656 34.316406 -43.472656 33.890625 -45.046875 C 33.472656 -46.628906 32.875 -47.625 32.09375 -48.03125 C 31.34375 -48.476562 30.398438 -48.445312 29.265625 -47.9375 C 28.128906 -47.425781 26.945312 -46.539062 25.71875 -45.28125 C 24.195312 -43.65625 22.660156 -41.71875 21.109375 -39.46875 C 19.566406 -37.226562 18.070312 -34.816406 16.625 -32.234375 C 15.1875 -29.660156 13.835938 -27.03125 12.578125 -24.34375 C 11.328125 -21.664062 10.21875 -19.0625 9.25 -16.53125 C 8.28125 -14 7.503906 -11.664062 6.921875 -9.53125 C 4.890625 -2.019531 4.128906 4.125 4.640625 8.90625 C 4.835938 10.945312 5.273438 12.617188 5.953125 13.921875 C 6.640625 15.234375 7.507812 16.078125 8.5625 16.453125 C 9.8125 16.929688 11.328125 16.742188 13.109375 15.890625 C 14.898438 15.046875 16.8125 13.585938 18.84375 11.515625 C 21.050781 9.273438 23.289062 6.410156 25.5625 2.921875 C 27.84375 -0.554688 30.101562 -4.519531 32.34375 -8.96875 C 31.320312 -8.863281 30.257812 -8.75 29.15625 -8.625 C 28.050781 -8.507812 26.941406 -8.398438 25.828125 -8.296875 C 23.992188 -8.097656 22.132812 -7.894531 20.25 -7.6875 C 18.363281 -7.488281 16.519531 -7.269531 14.71875 -7.03125 C 14.6875 -7.03125 14.65625 -7.03125 14.625 -7.03125 C 14.039062 -7.03125 13.71875 -7.316406 13.65625 -7.890625 C 13.613281 -8.160156 13.671875 -8.40625 13.828125 -8.625 C 13.984375 -8.851562 14.195312 -8.984375 14.46875 -9.015625 C 16.269531 -9.253906 18.109375 -9.46875 19.984375 -9.65625 C 21.867188 -9.84375 23.75 -10.035156 25.625 -10.234375 C 26.945312 -10.367188 28.257812 -10.503906 29.5625 -10.640625 C 30.875 -10.773438 32.140625 -10.910156 33.359375 -11.046875 C 33.398438 -11.117188 33.425781 -11.179688 33.4375 -11.234375 C 33.457031 -11.285156 33.484375 -11.34375 33.515625 -11.40625 C 33.753906 -11.945312 34.160156 -12.117188 34.734375 -11.921875 C 35.003906 -11.816406 35.207031 -11.613281 35.34375 -11.3125 C 37.28125 -11.582031 39.015625 -11.859375 40.546875 -12.140625 C 42.078125 -12.429688 43.265625 -12.78125 44.109375 -13.1875 C 44.347656 -13.289062 44.59375 -13.289062 44.84375 -13.1875 C 45.101562 -13.09375 45.285156 -12.925781 45.390625 -12.6875 Z M 45.390625 -12.6875 "/></g></g></g><g fill="#ffffff" fill-opacity="1"><g transform="translate(235.079987, 82.566035)"><g><path d="M 21.34375 -11.3125 C 21.582031 -11.207031 21.742188 -11.023438 21.828125 -10.765625 C 21.910156 -10.515625 21.898438 -10.269531 21.796875 -10.03125 C 21.148438 -8.707031 20.445312 -7.382812 19.6875 -6.0625 C 18.925781 -4.738281 18.128906 -3.523438 17.296875 -2.421875 C 16.460938 -1.316406 15.601562 -0.4375 14.71875 0.21875 C 13.832031 0.882812 12.953125 1.21875 12.078125 1.21875 C 11.898438 1.21875 11.710938 1.203125 11.515625 1.171875 C 9.234375 0.734375 7.820312 -2.320312 7.28125 -8 C 6.707031 -7.21875 6.035156 -6.34375 5.265625 -5.375 C 4.503906 -4.40625 3.703125 -3.445312 2.859375 -2.5 C 2.722656 -2.363281 2.5 -2.148438 2.1875 -1.859375 C 1.882812 -1.566406 1.53125 -1.335938 1.125 -1.171875 C 0.71875 -1.003906 0.304688 -1.019531 -0.109375 -1.21875 C -0.921875 -1.53125 -1.304688 -2.414062 -1.265625 -3.875 C -1.265625 -4.71875 -1.101562 -5.765625 -0.78125 -7.015625 C -0.46875 -8.273438 -0.015625 -9.539062 0.578125 -10.8125 C 1.179688 -12.09375 1.878906 -13.222656 2.671875 -14.203125 C 3.472656 -15.191406 4.363281 -15.859375 5.34375 -16.203125 C 5.957031 -16.429688 6.703125 -16.46875 7.578125 -16.3125 C 8.460938 -16.164062 9.382812 -15.535156 10.34375 -14.421875 C 10.507812 -14.210938 10.582031 -13.972656 10.5625 -13.703125 C 10.550781 -13.429688 10.441406 -13.210938 10.234375 -13.046875 C 10.035156 -12.867188 9.800781 -12.789062 9.53125 -12.8125 C 9.257812 -12.832031 9.035156 -12.941406 8.859375 -13.140625 C 8.046875 -14.085938 7.34375 -14.535156 6.75 -14.484375 C 6.15625 -14.441406 5.65625 -14.265625 5.25 -13.953125 C 4.5 -13.410156 3.816406 -12.628906 3.203125 -11.609375 C 2.597656 -10.585938 2.085938 -9.515625 1.671875 -8.390625 C 1.265625 -7.273438 0.976562 -6.234375 0.8125 -5.265625 C 0.644531 -4.296875 0.59375 -3.59375 0.65625 -3.15625 C 0.757812 -3.226562 0.867188 -3.3125 0.984375 -3.40625 C 1.109375 -3.507812 1.238281 -3.644531 1.375 -3.8125 C 2.394531 -4.9375 3.328125 -6.050781 4.171875 -7.15625 C 5.023438 -8.257812 5.753906 -9.234375 6.359375 -10.078125 C 6.535156 -10.316406 6.695312 -10.546875 6.84375 -10.765625 C 7 -10.992188 7.144531 -11.191406 7.28125 -11.359375 C 7.550781 -11.703125 7.910156 -11.804688 8.359375 -11.671875 C 8.796875 -11.566406 9.03125 -11.273438 9.0625 -10.796875 C 9.164062 -8.585938 9.34375 -6.8125 9.59375 -5.46875 C 9.851562 -4.132812 10.132812 -3.132812 10.4375 -2.46875 C 10.75 -1.8125 11.039062 -1.363281 11.3125 -1.125 C 11.582031 -0.882812 11.785156 -0.765625 11.921875 -0.765625 C 12.566406 -0.628906 13.601562 -1.289062 15.03125 -2.75 C 16.457031 -4.207031 18.117188 -6.90625 20.015625 -10.84375 C 20.148438 -11.113281 20.34375 -11.289062 20.59375 -11.375 C 20.851562 -11.46875 21.101562 -11.445312 21.34375 -11.3125 Z M 21.34375 -11.3125 "/></g></g></g><g fill="#ffffff" fill-opacity="1"><g transform="translate(254.028887, 82.566035)"><g><path d="M 22.359375 -11.5625 C 22.597656 -11.425781 22.769531 -11.226562 22.875 -10.96875 C 22.976562 -10.71875 22.957031 -10.472656 22.8125 -10.234375 C 22.175781 -8.847656 21.390625 -7.285156 20.453125 -5.546875 C 19.515625 -3.816406 18.519531 -2.078125 17.46875 -0.328125 C 16.414062 1.421875 15.34375 3.015625 14.25 4.453125 C 13.164062 5.898438 12.113281 7.070312 11.09375 7.96875 C 10.082031 8.875 9.171875 9.328125 8.359375 9.328125 C 8.117188 9.328125 7.894531 9.273438 7.6875 9.171875 C 6.976562 8.898438 6.507812 8.253906 6.28125 7.234375 C 6.0625 6.210938 6.085938 4.753906 6.359375 2.859375 C 6.835938 -0.578125 8.097656 -5.4375 10.140625 -11.71875 C 10.097656 -11.71875 10.066406 -11.707031 10.046875 -11.6875 C 10.035156 -11.675781 10.015625 -11.671875 9.984375 -11.671875 C 9.304688 -11.191406 8.488281 -10.695312 7.53125 -10.1875 C 6.582031 -9.675781 5.597656 -9.332031 4.578125 -9.15625 C 3.566406 -8.988281 2.601562 -9.210938 1.6875 -9.828125 C 0.394531 -10.742188 -0.265625 -12.015625 -0.296875 -13.640625 C -0.335938 -15.273438 0.269531 -17.0625 1.53125 -19 C 1.9375 -19.613281 2.46875 -20.289062 3.125 -21.03125 C 3.789062 -21.78125 4.488281 -22.359375 5.21875 -22.765625 C 5.945312 -23.171875 6.601562 -23.1875 7.1875 -22.8125 C 7.488281 -22.644531 7.710938 -22.359375 7.859375 -21.953125 C 8.015625 -21.546875 8.007812 -20.914062 7.84375 -20.0625 C 7.675781 -19.21875 7.269531 -18.082031 6.625 -16.65625 C 5.976562 -15.226562 5.007812 -13.378906 3.71875 -11.109375 C 4.5 -11.003906 5.375 -11.222656 6.34375 -11.765625 C 7.3125 -12.304688 8.164062 -12.816406 8.90625 -13.296875 C 9.625 -13.765625 10.21875 -14.109375 10.6875 -14.328125 C 11.164062 -14.554688 11.609375 -14.519531 12.015625 -14.21875 C 12.390625 -13.90625 12.539062 -13.523438 12.46875 -13.078125 C 12.40625 -12.640625 12.34375 -12.304688 12.28125 -12.078125 C 11.15625 -8.546875 10.285156 -5.609375 9.671875 -3.265625 C 9.066406 -0.921875 8.648438 0.960938 8.421875 2.390625 C 8.203125 3.816406 8.09375 4.882812 8.09375 5.59375 C 8.09375 6.3125 8.144531 6.78125 8.25 7 C 8.351562 7.21875 8.40625 7.347656 8.40625 7.390625 C 8.8125 7.453125 9.648438 6.796875 10.921875 5.421875 C 12.203125 4.046875 13.722656 1.976562 15.484375 -0.78125 C 17.253906 -3.550781 19.101562 -6.972656 21.03125 -11.046875 C 21.164062 -11.316406 21.359375 -11.492188 21.609375 -11.578125 C 21.867188 -11.671875 22.117188 -11.664062 22.359375 -11.5625 Z M 1.828125 -15.03125 C 1.628906 -14.3125 1.570312 -13.722656 1.65625 -13.265625 C 1.738281 -12.804688 1.863281 -12.441406 2.03125 -12.171875 C 3.125 -14.078125 3.945312 -15.625 4.5 -16.8125 C 5.0625 -18 5.441406 -18.914062 5.640625 -19.5625 C 5.847656 -20.207031 5.972656 -20.664062 6.015625 -20.9375 C 5.640625 -20.726562 5.171875 -20.332031 4.609375 -19.75 C 4.046875 -19.175781 3.5 -18.484375 2.96875 -17.671875 C 2.445312 -16.859375 2.066406 -15.976562 1.828125 -15.03125 Z M 1.828125 -15.03125 "/></g></g></g><g fill="#ffffff" fill-opacity="1"><g transform="translate(274.047444, 82.566035)"><g><path d="M 21.75 -42.53125 C 21.851562 -42.46875 21.953125 -42.304688 22.046875 -42.046875 C 22.148438 -41.796875 22.203125 -41.351562 22.203125 -40.71875 C 22.203125 -40.09375 22.066406 -39.175781 21.796875 -37.96875 C 21.523438 -36.769531 21.066406 -35.164062 20.421875 -33.15625 C 20.316406 -32.882812 20.222656 -32.601562 20.140625 -32.3125 C 20.054688 -32.03125 19.960938 -31.753906 19.859375 -31.484375 C 19.078125 -29.035156 18.125 -26.289062 17 -23.25 C 15.882812 -20.207031 14.378906 -16.890625 12.484375 -13.296875 C 12.035156 -11.085938 11.570312 -8.734375 11.09375 -6.234375 C 10.625 -3.742188 10.148438 -1.101562 9.671875 1.6875 C 9.066406 5.445312 8.582031 8.550781 8.21875 11 C 7.863281 13.445312 7.617188 15.390625 7.484375 16.828125 C 7.347656 18.273438 7.265625 19.375 7.234375 20.125 C 7.503906 20.019531 7.773438 20.019531 8.046875 20.125 C 8.285156 20.257812 8.445312 20.453125 8.53125 20.703125 C 8.613281 20.960938 8.601562 21.207031 8.5 21.4375 C 8.332031 21.8125 8.09375 22.226562 7.78125 22.6875 C 7.476562 23.144531 7.109375 23.375 6.671875 23.375 C 6.535156 23.375 6.398438 23.359375 6.265625 23.328125 C 5.921875 23.222656 5.664062 22.972656 5.5 22.578125 C 5.332031 22.191406 5.253906 21.445312 5.265625 20.34375 C 5.285156 19.238281 5.429688 17.566406 5.703125 15.328125 C 6.109375 11.796875 6.789062 7.144531 7.75 1.375 C 8.289062 -1.78125 8.847656 -4.851562 9.421875 -7.84375 C 8.910156 -7.03125 8.375 -6.195312 7.8125 -5.34375 C 7.257812 -4.5 6.675781 -3.632812 6.0625 -2.75 C 5.144531 -1.394531 4.3125 -0.4375 3.5625 0.125 C 2.8125 0.6875 2.15625 0.984375 1.59375 1.015625 C 1.039062 1.046875 0.578125 0.960938 0.203125 0.765625 C -0.546875 0.328125 -1.019531 -0.453125 -1.21875 -1.578125 C -1.425781 -2.703125 -1.398438 -3.96875 -1.140625 -5.375 C -0.890625 -6.78125 -0.472656 -8.128906 0.109375 -9.421875 C 1.296875 -11.929688 2.660156 -13.703125 4.203125 -14.734375 C 5.742188 -15.773438 7.0625 -16.144531 8.15625 -15.84375 C 8.382812 -15.738281 8.753906 -15.507812 9.265625 -15.15625 C 9.773438 -14.800781 10.082031 -14.128906 10.1875 -13.140625 C 10.351562 -13.410156 10.503906 -13.679688 10.640625 -13.953125 C 11.898438 -19.796875 13.140625 -24.832031 14.359375 -29.0625 C 15.585938 -33.289062 16.734375 -36.582031 17.796875 -38.9375 C 18.867188 -41.300781 19.78125 -42.601562 20.53125 -42.84375 C 21 -43.007812 21.40625 -42.90625 21.75 -42.53125 Z M 4.484375 -3.875 C 5.296875 -5.0625 6.066406 -6.234375 6.796875 -7.390625 C 7.523438 -8.546875 8.210938 -9.679688 8.859375 -10.796875 C 8.347656 -10.960938 8.144531 -11.300781 8.25 -11.8125 C 8.25 -12.050781 8.238281 -12.429688 8.21875 -12.953125 C 8.207031 -13.484375 8 -13.816406 7.59375 -13.953125 C 7.519531 -13.984375 7.414062 -14 7.28125 -14 C 6.632812 -14 5.789062 -13.554688 4.75 -12.671875 C 3.71875 -11.796875 2.765625 -10.425781 1.890625 -8.5625 C 1.304688 -7.332031 0.929688 -6.164062 0.765625 -5.0625 C 0.597656 -3.957031 0.5625 -3.03125 0.65625 -2.28125 C 0.757812 -1.539062 0.945312 -1.101562 1.21875 -0.96875 C 1.320312 -0.894531 1.644531 -1.007812 2.1875 -1.3125 C 2.726562 -1.625 3.492188 -2.476562 4.484375 -3.875 Z M 18.546875 -33.765625 C 18.953125 -34.953125 19.265625 -35.976562 19.484375 -36.84375 C 19.703125 -37.71875 19.878906 -38.457031 20.015625 -39.0625 C 19.367188 -37.738281 18.585938 -35.734375 17.671875 -33.046875 C 16.753906 -30.367188 15.753906 -26.925781 14.671875 -22.71875 C 15.378906 -24.445312 15.992188 -26.09375 16.515625 -27.65625 C 17.046875 -29.21875 17.535156 -30.679688 17.984375 -32.046875 C 18.085938 -32.347656 18.179688 -32.640625 18.265625 -32.921875 C 18.347656 -33.210938 18.441406 -33.492188 18.546875 -33.765625 Z M 18.546875 -33.765625 "/></g></g></g><g fill="#ffffff" fill-opacity="1"><g transform="translate(289.99101, 82.566035)"><g><path d="M 17.21875 -11.359375 C 17.457031 -11.222656 17.59375 -11.019531 17.625 -10.75 C 17.65625 -10.476562 17.601562 -10.238281 17.46875 -10.03125 C 15.46875 -7.25 13.632812 -4.945312 11.96875 -3.125 C 10.300781 -1.3125 8.640625 0.1875 6.984375 1.375 C 5.722656 2.257812 4.484375 2.703125 3.265625 2.703125 C 2.304688 2.703125 1.472656 2.445312 0.765625 1.9375 C 0.285156 1.59375 -0.179688 0.988281 -0.640625 0.125 C -1.097656 -0.738281 -1.34375 -1.992188 -1.375 -3.640625 C -1.40625 -5.285156 -1 -7.453125 -0.15625 -10.140625 C -0.15625 -10.140625 -0.15625 -10.15625 -0.15625 -10.1875 C 0.863281 -13.445312 2.0625 -15.929688 3.4375 -17.640625 C 4.8125 -19.359375 5.992188 -20.234375 6.984375 -20.265625 C 7.765625 -20.304688 8.269531 -19.96875 8.5 -19.25 C 8.875 -18.269531 8.429688 -16.867188 7.171875 -15.046875 C 5.921875 -13.234375 4.070312 -11.304688 1.625 -9.265625 C 0.882812 -6.890625 0.53125 -5.03125 0.5625 -3.6875 C 0.59375 -2.351562 0.773438 -1.382812 1.109375 -0.78125 C 1.453125 -0.1875 1.726562 0.191406 1.9375 0.359375 C 2.957031 1.109375 4.265625 0.90625 5.859375 -0.25 C 7.421875 -1.34375 9 -2.757812 10.59375 -4.5 C 12.1875 -6.25 13.9375 -8.46875 15.84375 -11.15625 C 16.007812 -11.351562 16.226562 -11.476562 16.5 -11.53125 C 16.769531 -11.582031 17.007812 -11.523438 17.21875 -11.359375 Z M 6.625 -18.140625 C 6.25 -17.898438 5.738281 -17.394531 5.09375 -16.625 C 4.445312 -15.863281 3.785156 -14.753906 3.109375 -13.296875 C 4.328125 -14.484375 5.191406 -15.492188 5.703125 -16.328125 C 6.210938 -17.160156 6.519531 -17.765625 6.625 -18.140625 Z M 6.625 -18.140625 "/></g></g></g><g fill="#ffffff" fill-opacity="1"><g transform="translate(304.813947, 82.566035)"><g><path d="M 20.53125 -11.359375 C 20.769531 -11.222656 20.921875 -11.023438 20.984375 -10.765625 C 21.054688 -10.515625 21.023438 -10.269531 20.890625 -10.03125 C 19.285156 -7.21875 17.847656 -5.050781 16.578125 -3.53125 C 15.304688 -2.019531 14.007812 -1.351562 12.6875 -1.53125 C 10.988281 -1.726562 9.644531 -3.5625 8.65625 -7.03125 C 8.320312 -8.144531 8.023438 -8.945312 7.765625 -9.4375 C 7.515625 -9.9375 7.3125 -10.242188 7.15625 -10.359375 C 7 -10.484375 6.890625 -10.546875 6.828125 -10.546875 C 6.722656 -10.578125 6.515625 -10.472656 6.203125 -10.234375 C 5.898438 -9.992188 5.460938 -9.46875 4.890625 -8.65625 C 4.316406 -7.84375 3.601562 -6.578125 2.75 -4.859375 C 1.90625 -3.148438 0.867188 -0.800781 -0.359375 2.1875 C -0.523438 2.59375 -0.8125 2.796875 -1.21875 2.796875 C -1.320312 2.796875 -1.410156 2.78125 -1.484375 2.75 C -2.054688 2.613281 -2.304688 2.257812 -2.234375 1.6875 C -2.066406 0.289062 -1.757812 -1.320312 -1.3125 -3.15625 C -0.875 -4.988281 -0.394531 -6.851562 0.125 -8.75 C 0.65625 -10.65625 1.140625 -12.359375 1.578125 -13.859375 C 1.679688 -14.191406 1.773438 -14.503906 1.859375 -14.796875 C 1.941406 -15.085938 2.019531 -15.367188 2.09375 -15.640625 C 2.1875 -15.910156 2.351562 -16.101562 2.59375 -16.21875 C 2.832031 -16.34375 3.070312 -16.367188 3.3125 -16.296875 C 3.582031 -16.234375 3.785156 -16.082031 3.921875 -15.84375 C 4.054688 -15.601562 4.070312 -15.347656 3.96875 -15.078125 C 3.90625 -14.804688 3.828125 -14.523438 3.734375 -14.234375 C 3.648438 -13.941406 3.5625 -13.628906 3.46875 -13.296875 C 3.226562 -12.410156 2.953125 -11.441406 2.640625 -10.390625 C 2.335938 -9.335938 2.035156 -8.269531 1.734375 -7.1875 C 2.890625 -9.351562 3.875 -10.789062 4.6875 -11.5 C 5.5 -12.21875 6.242188 -12.5625 6.921875 -12.53125 C 7.878906 -12.457031 8.628906 -11.925781 9.171875 -10.9375 C 9.710938 -9.957031 10.171875 -8.820312 10.546875 -7.53125 C 11.054688 -5.769531 11.53125 -4.648438 11.96875 -4.171875 C 12.40625 -3.703125 12.726562 -3.46875 12.9375 -3.46875 C 13.375 -3.394531 13.890625 -3.640625 14.484375 -4.203125 C 15.085938 -4.765625 15.6875 -5.476562 16.28125 -6.34375 C 16.875 -7.207031 17.429688 -8.0625 17.953125 -8.90625 C 18.484375 -9.757812 18.882812 -10.457031 19.15625 -11 C 19.289062 -11.238281 19.492188 -11.390625 19.765625 -11.453125 C 20.035156 -11.523438 20.289062 -11.492188 20.53125 -11.359375 Z M 20.53125 -11.359375 "/></g></g></g></svg>